# Blender 5.2.1 LTS
# www.blender.org
mtllib us_trailer_middle.mtl
o Cube.001
v -1.690210 -0.322733 -2.491505
v -1.896508 -0.322733 -2.491505
v -1.690210 -0.322733 -2.249206
v -1.896508 -0.322733 -2.249206
v -1.594258 -0.549446 -1.698284
v -1.992460 -0.549446 -1.698284
v -1.594258 -0.549446 -2.591534
v -1.594258 -0.509741 -2.631238
v -1.594258 -0.537817 -2.619609
v -1.992460 -0.509741 -2.631238
v -1.992460 -0.549446 -2.591534
v -1.992460 -0.537817 -2.619609
v -2.137887 -0.296940 1.640255
v -2.137887 -0.279818 1.657377
v -2.150870 -0.279818 1.640255
v -2.137887 -0.291925 1.652362
v -2.145383 -0.289704 1.650140
v -2.147067 -0.279818 1.652362
v -2.147067 -0.291925 1.640255
v -2.150870 0.628895 1.640255
v -2.137887 0.628895 1.657377
v -2.137887 0.646017 1.640255
v -2.147067 0.628895 1.652362
v -2.145383 0.638781 1.650140
v -2.137887 0.641002 1.652362
v -2.147067 0.641002 1.640255
v -1.435848 -0.279818 1.640255
v -1.448831 -0.279818 1.657377
v -1.448831 -0.296940 1.640255
v -1.439650 -0.279818 1.652362
v -1.441335 -0.289704 1.650140
v -1.448831 -0.291925 1.652362
v -1.439650 -0.291925 1.640255
v -1.448831 0.646017 1.640255
v -1.448831 0.628895 1.657377
v -1.435848 0.628895 1.640255
v -1.448831 0.641002 1.652362
v -1.441335 0.638781 1.650140
v -1.439650 0.628895 1.652362
v -1.439650 0.641002 1.640255
v -2.137887 -0.296940 -1.698284
v -1.448831 -0.296940 -1.698284
v -1.992460 -0.296940 1.640255
v -1.992460 -0.279818 1.657377
v -1.992460 -0.291925 1.652362
v -1.594258 -0.279818 1.657377
v -1.594258 -0.296940 1.640255
v -1.594258 -0.291925 1.652362
v -1.594258 0.646017 1.640255
v -1.594258 0.628895 1.657377
v -1.594258 0.641002 1.652362
v -1.992460 0.628895 1.657377
v -1.992460 0.646017 1.640255
v -1.992460 0.641002 1.652362
v -1.941680 -0.571617 0.293395
v -2.050017 -0.571617 0.293395
v -1.645038 -0.571617 0.293395
v -2.137887 -0.582428 -1.689371
v -1.448831 -0.582428 -1.689371
v -1.536701 -0.571617 0.293395
v -1.992460 -0.582428 -1.689371
v -1.594258 -0.582428 -1.689371
v -2.147067 -0.291925 0.293395
v -2.150870 -0.279818 0.293395
v -1.439650 0.641002 0.293395
v -1.435848 0.628895 0.293395
v -2.137887 0.646017 0.293395
v -1.536701 -0.296940 0.293395
v -1.992460 0.646017 0.293395
v -1.645038 -0.296940 0.293395
v -2.050017 -0.296940 0.293395
v -1.448831 0.646017 0.293395
v -2.147067 0.641002 0.293395
v -2.150870 0.628895 0.293395
v -1.439650 -0.291925 0.293395
v -1.435848 -0.279818 0.293395
v -1.941680 -0.296940 0.293395
v -1.594258 0.646017 0.293395
v -2.135347 -0.292531 0.293395
v -1.453254 -0.292628 0.293395
v -2.147067 -0.291925 -1.677857
v -2.150870 -0.279818 -1.677857
v -1.439650 0.641002 -1.677857
v -1.435848 0.628895 -1.677857
v -2.137887 0.646017 -1.677857
v -1.992460 0.646017 -1.677857
v -1.448831 0.646017 -1.677857
v -2.147067 0.641002 -1.677857
v -2.150870 0.628895 -1.677857
v -1.439650 -0.291925 -1.677857
v -1.435848 -0.279818 -1.677857
v -1.594258 0.646017 -1.677857
v -2.137861 -0.296895 -1.677857
v -1.448876 -0.296896 -1.677857
v -1.908199 -0.296895 -1.677857
v -1.678538 -0.296896 -1.677857
v -1.964373 0.331713 -1.677857
v -1.936286 0.017409 -1.677857
v -1.622351 0.331713 -1.677857
v -1.650445 0.017409 -1.677857
v -1.978417 0.488865 -1.677857
v -1.608305 0.488865 -1.677857
v -1.664491 -0.139743 -1.677857
v -1.922243 -0.139743 -1.677857
v -1.657468 -0.061167 -1.677857
v -1.929264 -0.061167 -1.677857
v -1.971395 0.410289 -1.677857
v -1.615328 0.410289 -1.677857
v -1.594258 -0.322733 -2.631238
v -1.992460 -0.322733 -2.631238
v -1.594258 -0.322733 -1.698284
v -1.992460 -0.322733 -1.698284
v -1.690210 -0.237866 -2.491505
v -1.896508 -0.237866 -2.491505
v -1.690210 -0.237866 -2.249206
v -1.896508 -0.237866 -2.249206
v -1.908202 -0.296940 -1.698284
v -1.678516 -0.296940 -1.698284
vn -0.0000 -0.0000 1.0000
vn -0.0000 -0.9239 -0.3827
vn -0.0000 -0.3827 -0.9239
vn -0.0000 -0.0000 -1.0000
vn -0.0000 -1.0000 -0.0000
vn 1.0000 -0.0000 -0.0000
vn -1.0000 -0.0000 -0.0000
vn -0.4129 -0.8553 0.3131
vn -0.4129 -0.3131 0.8553
vn -0.9309 -0.2584 0.2584
vn -0.9309 0.2584 0.2584
vn -0.4129 0.3131 0.8553
vn -0.4129 0.8553 0.3131
vn 0.9309 -0.2584 0.2584
vn 0.4129 -0.3131 0.8553
vn 0.4129 -0.8553 0.3131
vn 0.4128 0.8553 0.3131
vn 0.4129 0.3131 0.8553
vn 0.9309 0.2584 0.2584
vn -0.0000 -1.0000 0.0055
vn -0.0516 -0.9987 -0.0034
vn -0.4794 -0.0000 0.8776
vn -0.9540 -0.0000 0.2997
vn -0.9540 -0.2997 -0.0000
vn 0.4794 0.8776 -0.0000
vn 0.4794 -0.0000 0.8776
vn 0.9540 -0.0000 0.2997
vn -0.0000 -0.9239 0.3827
vn -0.0000 -0.3827 0.9239
vn -0.0000 0.9239 0.3827
vn -0.0000 0.3827 0.9239
vn 0.0516 -0.9987 0.0023
vn 0.9540 -0.2997 -0.0000
vn -0.0000 1.0000 -0.0000
vn -0.0029 -0.0327 -0.9995
vn -0.0000 -0.0343 -0.9994
vn -0.0516 -0.9987 0.0023
vn 0.9540 0.2997 -0.0000
vn 0.0029 -0.0327 -0.9995
vn 0.9990 0.0007 0.0442
vn -0.9990 0.0007 0.0442
vn 0.0516 -0.9987 -0.0034
vn -0.9540 0.2997 -0.0000
vn -0.4794 0.8776 -0.0000
vn -0.2597 -0.9657 -0.0018
vn 0.2434 -0.9699 -0.0020
vn 0.2412 -0.9705 0.0013
vn -0.2574 -0.9663 0.0012
vn -0.0000 1.0000 -0.0022
vt 0.291667 0.666667
vt 0.208333 0.666667
vt 0.291667 0.586880
vt 0.208333 0.586880
vt 0.208333 0.583680
vt 0.291667 0.583680
vt 0.208333 0.583333
vt 0.291667 0.583333
vt 0.208333 0.583333
vt 0.291667 0.583333
vt 0.131830 0.749575
vt 0.131830 0.750000
vt 0.127887 0.750000
vt 0.125000 0.749575
vt 0.379539 0.993170
vt 0.379539 1.000000
vt 0.376919 1.000000
vt 0.375000 0.993170
vt 0.379539 0.000425
vt 0.375000 0.000425
vt 0.375000 0.000180
vt 0.379539 0.000000
vt 0.620461 0.000425
vt 0.620461 0.000000
vt 0.623081 0.000000
vt 0.625000 0.000425
vt 0.620461 0.993170
vt 0.625000 0.993170
vt 0.625000 0.997113
vt 0.620461 1.000000
vt 0.868170 0.749575
vt 0.875000 0.749575
vt 0.875000 0.749820
vt 0.868170 0.750000
vt 0.379539 0.749575
vt 0.379539 0.750000
vt 0.375640 0.750902
vt 0.375000 0.749575
vt 0.379539 0.756830
vt 0.371585 0.753415
vt 0.368170 0.749575
vt 0.631830 0.749575
vt 0.628415 0.753415
vt 0.625323 0.749940
vt 0.625000 0.749575
vt 0.620461 0.756830
vt 0.620461 0.750000
vt 0.620461 0.749575
vt 0.131830 0.666667
vt 0.208333 0.716127
vt 0.131830 0.716127
vt 0.125825 0.716127
vt 0.375000 0.033873
vt 0.379539 0.033873
vt 0.631830 0.716127
vt 0.625000 0.716127
vt 0.291667 0.749575
vt 0.291667 0.750000
vt 0.375000 0.833333
vt 0.379539 0.833333
vt 0.791667 0.749575
vt 0.791667 0.750000
vt 0.625000 0.916667
vt 0.620461 0.916667
vt 0.368170 0.716127
vt 0.368170 0.666667
vt 0.368230 0.667174
vt 0.374043 0.716127
vt 0.208333 0.749575
vt 0.208333 0.750000
vt 0.375000 0.916667
vt 0.379539 0.916667
vt 0.708333 0.749575
vt 0.708333 0.750000
vt 0.625000 0.833333
vt 0.620461 0.833333
vt 0.375000 0.716127
vt 0.379539 0.716127
vt 0.620461 0.033873
vt 0.791667 0.716127
vt 0.868170 0.716127
vt 0.291667 0.716127
vt 0.620461 0.716127
vt 0.708333 0.716127
vt 0.131768 0.667174
vt 0.375000 0.082826
vt 0.379539 0.082826
vt 0.631830 0.667174
vt 0.625000 0.667174
vt 0.620461 0.667174
vt 0.791667 0.667174
vt 0.868170 0.667174
vt 0.379539 0.667174
vt 0.708333 0.667174
vt 0.625000 0.033873
vt 0.875000 0.716127
vt 0.125000 0.716127
vt 0.375000 0.667174
vt 0.125000 0.667174
vt 0.620461 0.082826
vt 0.625000 0.082826
vt 0.875000 0.667174
vt 0.000000 0.000000
s 0
usemtl Base
f 13/11/8 16/12/8 17/13/8 19/14/8
f 14/15/9 18/16/9 17/17/9 16/18/9
f 15/19/10 19/20/10 17/21/10 18/22/10
f 20/23/11 23/24/11 24/25/11 26/26/11
f 21/27/12 25/28/12 24/29/12 23/30/12
f 22/31/13 26/32/13 24/33/13 25/34/13
f 27/35/14 30/36/14 31/37/14 33/38/14
f 28/39/15 32/40/15 31/37/15 30/36/15
f 29/41/16 33/38/16 31/37/16 32/40/16
f 34/42/17 37/43/17 38/44/17 40/45/17
f 35/46/18 39/47/18 38/44/18 37/43/18
f 36/48/19 40/45/19 38/44/19 39/47/19
f 58/49/20 61/2/20 55/50/20 56/51/20
f 71/51/21 13/11/21 79/52/21
f 14/15/22 21/27/22 23/30/22 18/16/22
f 18/22/23 23/24/23 20/23/23 15/19/23
f 63/53/24 19/20/24 15/19/24 64/54/24
f 72/55/25 34/42/25 40/45/25 65/56/25
f 35/46/26 28/39/26 30/36/26 39/47/26
f 39/47/27 30/36/27 27/35/27 36/48/27
f 47/57/28 29/41/28 32/40/28 48/58/28
f 48/59/29 32/40/29 28/39/29 46/60/29
f 53/61/30 22/31/30 25/34/30 54/62/30
f 54/63/31 25/28/31 21/27/31 52/64/31
f 68/65/32 42/66/32 94/67/32 80/68/32
f 13/11/28 43/69/28 45/70/28 16/12/28
f 16/18/29 45/71/29 44/72/29 14/15/29
f 43/69/28 47/57/28 48/58/28 45/70/28
f 45/71/29 48/59/29 46/60/29 44/72/29
f 34/42/30 49/73/30 51/74/30 37/43/30
f 37/43/31 51/75/31 50/76/31 35/46/31
f 49/73/30 53/61/30 54/62/30 51/74/30
f 51/75/31 54/63/31 52/64/31 50/76/31
f 33/38/33 75/77/33 76/78/33 27/35/33
f 44/72/1 52/64/1 21/27/1 14/15/1
f 15/19/7 20/23/7 74/79/7 64/54/7
f 28/39/1 35/46/1 50/76/1 46/60/1
f 69/80/34 67/81/34 22/31/34 53/61/34
f 70/82/5 68/65/5 29/41/5 47/57/5
f 76/78/6 66/83/6 36/48/6 27/35/6
f 46/60/1 50/76/1 52/64/1 44/72/1
f 72/55/34 78/84/34 49/73/34 34/42/34
f 77/50/5 70/82/5 47/57/5 43/69/5
f 41/49/35 112/2/35 61/2/35 58/49/35
f 70/82/1 77/50/1 55/50/1 57/82/1
f 77/50/1 71/51/1 56/51/1 55/50/1
f 68/65/1 70/82/1 57/82/1 60/65/1
f 61/2/20 62/1/20 57/82/20 55/50/20
f 62/1/20 59/66/20 60/65/20 57/82/20
f 41/49/37 71/51/37 79/52/37 93/85/37
f 81/86/24 63/53/24 64/54/24 82/87/24
f 87/88/25 72/55/25 65/56/25 83/89/25
f 83/89/38 65/56/38 66/83/38 84/90/38
f 111/1/39 42/66/39 59/66/39 62/1/39
f 86/91/34 85/92/34 67/81/34 69/80/34
f 42/66/40 68/65/40 60/65/40 59/66/40
f 91/93/6 84/90/6 66/83/6 76/78/6
f 87/88/34 92/94/34 78/84/34 72/55/34
f 71/51/41 41/49/41 58/49/41 56/51/41
f 92/94/34 86/91/34 69/80/34 78/84/34
f 71/51/5 77/50/5 43/69/5 13/11/5
f 29/41/42 68/65/42 80/68/42
f 26/26/43 73/95/43 74/79/43 20/23/43
f 22/31/44 67/81/44 73/96/44 26/32/44
f 65/56/38 40/45/38 36/48/38 66/83/38
f 78/84/34 69/80/34 53/61/34 49/73/34
f 79/52/45 13/11/45 19/14/45 63/97/45
f 80/68/46 75/77/46 33/38/46 29/41/46
f 80/68/47 94/67/47 90/98/47 75/77/47
f 79/52/48 63/97/48 81/99/48 93/85/48
f 64/54/7 74/79/7 89/100/7 82/87/7
f 75/77/33 90/98/33 91/93/33 76/78/33
f 73/95/43 88/101/43 89/100/43 74/79/43
f 67/81/44 85/92/44 88/102/44 73/96/44
f 42/66/4 111/103/4 118/103/4
f 42/66/49 118/103/49 96/103/49 94/67/49
f 118/103/4 111/103/4 112/103/4 117/103/4
f 95/103/4 93/85/4 104/103/4
f 93/85/4 81/99/4 106/103/4 104/103/4
f 81/99/4 82/87/4 98/103/4 106/103/4
f 82/87/4 89/100/4 97/103/4 98/103/4
f 89/100/4 88/101/4 107/103/4 97/103/4
f 88/101/4 85/92/4 101/103/4 107/103/4
f 86/91/4 101/103/4 85/92/4
f 92/94/4 102/103/4 101/103/4 86/91/4
f 87/88/4 102/103/4 92/94/4
f 83/89/4 108/103/4 102/103/4 87/88/4
f 84/90/4 99/103/4 108/103/4 83/89/4
f 91/93/4 100/103/4 99/103/4 84/90/4
f 90/98/4 105/103/4 100/103/4 91/93/4
f 94/67/4 103/103/4 105/103/4 90/98/4
f 96/103/4 103/103/4 94/67/4
f 95/103/4 104/103/4 103/103/4 96/103/4
f 103/103/4 104/103/4 106/103/4 105/103/4
f 98/103/4 100/103/4 105/103/4 106/103/4
f 98/103/4 97/103/4 99/103/4 100/103/4
f 97/103/4 107/103/4 108/103/4 99/103/4
f 102/103/4 108/103/4 107/103/4 101/103/4
f 2/103/7 4/103/7 116/103/7 114/103/7
f 2/103/34 1/103/34 109/103/34 110/103/34
f 3/103/34 4/103/34 112/103/34 111/103/34
f 4/103/34 2/103/34 110/103/34 112/103/34
f 1/103/34 3/103/34 111/103/34 109/103/34
f 115/103/34 113/103/34 114/103/34 116/103/34
f 1/103/4 2/103/4 114/103/4 113/103/4
f 3/103/6 1/103/6 113/103/6 115/103/6
f 4/103/1 3/103/1 115/103/1 116/103/1
f 96/103/49 118/103/49 117/103/49 95/103/49
f 41/49/49 93/85/49 95/103/49 117/103/49
f 112/103/4 41/49/4 117/103/4
usemtl Secondary
f 111/1/1 112/2/1 6/2/1 5/1/1
f 7/3/2 11/4/2 12/5/2 9/6/2
f 9/6/3 12/5/3 10/7/3 8/8/3
f 110/9/4 109/10/4 8/8/4 10/7/4
f 11/4/5 7/3/5 5/1/5 6/2/5
f 109/10/6 111/1/6 5/1/6 7/3/6 9/6/6 8/8/6
f 112/2/7 110/9/7 10/7/7 12/5/7 11/4/7 6/2/7
f 112/2/36 111/1/36 62/1/36 61/2/36
o Cylinder.004
v -1.604683 -0.490503 -2.406402
v -1.474801 -0.490502 -2.406402
v -1.465541 -0.557697 -2.568624
v -1.465541 -0.490502 -2.581989
v -1.465541 -0.614662 -2.530561
v -1.465541 -0.652724 -2.473596
v -1.465541 -0.666090 -2.406402
v -1.465541 -0.652724 -2.339208
v -1.465541 -0.614662 -2.282243
v -1.465541 -0.557697 -2.244180
v -1.465541 -0.490502 -2.230814
v -1.465541 -0.423308 -2.244180
v -1.465541 -0.366343 -2.282243
v -1.465541 -0.328281 -2.339208
v -1.465541 -0.314915 -2.406402
v -1.465541 -0.328281 -2.473596
v -1.465541 -0.366343 -2.530561
v -1.465541 -0.423308 -2.568624
v -1.468878 -0.532625 -2.508095
v -1.468878 -0.490502 -2.516474
v -1.468878 -0.568335 -2.484235
v -1.468878 -0.592196 -2.448525
v -1.468878 -0.600575 -2.406402
v -1.468878 -0.592196 -2.364279
v -1.468878 -0.568335 -2.328569
v -1.468878 -0.532625 -2.304708
v -1.468878 -0.490502 -2.296330
v -1.468878 -0.448380 -2.304708
v -1.468878 -0.412670 -2.328569
v -1.468878 -0.388809 -2.364279
v -1.468878 -0.380430 -2.406402
v -1.468878 -0.388809 -2.448525
v -1.468878 -0.412670 -2.484235
v -1.468878 -0.448380 -2.508095
v -1.456679 -0.490502 -2.549232
v -1.456678 -0.545161 -2.538359
v -1.456678 -0.591498 -2.507398
v -1.456678 -0.622460 -2.461061
v -1.456678 -0.633332 -2.406402
v -1.456678 -0.622460 -2.351743
v -1.456678 -0.591498 -2.305406
v -1.456678 -0.545161 -2.274444
v -1.456678 -0.490502 -2.263572
v -1.456678 -0.435844 -2.274444
v -1.456678 -0.389507 -2.305406
v -1.456679 -0.358545 -2.351743
v -1.456679 -0.347673 -2.406402
v -1.456679 -0.358545 -2.461061
v -1.456679 -0.389507 -2.507398
v -1.456679 -0.435844 -2.538359
v -1.474801 -0.510830 -2.455476
v -1.474801 -0.490502 -2.459520
v -1.474801 -0.528062 -2.443962
v -1.474801 -0.539577 -2.426729
v -1.474801 -0.543620 -2.406402
v -1.474801 -0.539577 -2.386075
v -1.474801 -0.528062 -2.368842
v -1.474801 -0.510830 -2.357328
v -1.474801 -0.490502 -2.353284
v -1.474801 -0.470175 -2.357328
v -1.474801 -0.452943 -2.368842
v -1.474801 -0.441428 -2.386075
v -1.474801 -0.437385 -2.406402
v -1.474801 -0.441428 -2.426729
v -1.474801 -0.452943 -2.443962
v -1.474801 -0.470175 -2.455476
v -1.604683 -0.490503 -1.925240
v -1.474801 -0.490503 -1.925240
v -1.465541 -0.557697 -2.087462
v -1.465541 -0.490503 -2.100828
v -1.465541 -0.614662 -2.049399
v -1.465541 -0.652724 -1.992435
v -1.465541 -0.666090 -1.925240
v -1.465541 -0.652724 -1.858046
v -1.465541 -0.614662 -1.801081
v -1.465541 -0.557697 -1.763019
v -1.465541 -0.490503 -1.749653
v -1.465541 -0.423308 -1.763019
v -1.465541 -0.366343 -1.801081
v -1.465541 -0.328281 -1.858046
v -1.465541 -0.314915 -1.925240
v -1.465541 -0.328281 -1.992435
v -1.465541 -0.366343 -2.049399
v -1.465541 -0.423308 -2.087462
v -1.468878 -0.532625 -2.026934
v -1.468878 -0.490503 -2.035312
v -1.468878 -0.568335 -2.003073
v -1.468878 -0.592196 -1.967363
v -1.468878 -0.600575 -1.925240
v -1.468878 -0.592196 -1.883117
v -1.468878 -0.568335 -1.847407
v -1.468878 -0.532625 -1.823547
v -1.468878 -0.490503 -1.815168
v -1.468878 -0.448380 -1.823547
v -1.468878 -0.412670 -1.847407
v -1.468878 -0.388809 -1.883117
v -1.468878 -0.380430 -1.925240
v -1.468878 -0.388809 -1.967363
v -1.468878 -0.412670 -2.003073
v -1.468878 -0.448380 -2.026934
v -1.456679 -0.490503 -2.068070
v -1.456678 -0.545161 -2.057198
v -1.456678 -0.591498 -2.026236
v -1.456678 -0.622460 -1.979899
v -1.456678 -0.633332 -1.925240
v -1.456678 -0.622460 -1.870582
v -1.456678 -0.591498 -1.824244
v -1.456678 -0.545161 -1.793283
v -1.456678 -0.490503 -1.782411
v -1.456678 -0.435844 -1.793283
v -1.456678 -0.389507 -1.824244
v -1.456679 -0.358545 -1.870582
v -1.456679 -0.347673 -1.925240
v -1.456679 -0.358545 -1.979899
v -1.456679 -0.389507 -2.026236
v -1.456679 -0.435844 -2.057198
v -1.474801 -0.510830 -1.974315
v -1.474801 -0.490503 -1.978358
v -1.474801 -0.528062 -1.962800
v -1.474801 -0.539577 -1.945567
v -1.474801 -0.543620 -1.925240
v -1.474801 -0.539577 -1.904913
v -1.474801 -0.528062 -1.887680
v -1.474801 -0.510830 -1.876166
v -1.474801 -0.490503 -1.872123
v -1.474801 -0.470175 -1.876166
v -1.474801 -0.452943 -1.887680
v -1.474801 -0.441428 -1.904913
v -1.474801 -0.437385 -1.925240
v -1.474801 -0.441428 -1.945567
v -1.474801 -0.452943 -1.962800
v -1.474801 -0.470175 -1.974315
v -1.604683 -0.490502 -2.581989
v -1.604683 -0.557697 -2.568624
v -1.604683 -0.614662 -2.530561
v -1.604683 -0.652724 -2.473596
v -1.604683 -0.666090 -2.406402
v -1.604683 -0.652724 -2.339208
v -1.604683 -0.614662 -2.282243
v -1.604683 -0.557697 -2.244180
v -1.604683 -0.490502 -2.230814
v -1.604683 -0.423308 -2.244180
v -1.604683 -0.366343 -2.282243
v -1.604683 -0.328281 -2.339208
v -1.604683 -0.314915 -2.406402
v -1.604683 -0.328281 -2.473596
v -1.604683 -0.366343 -2.530561
v -1.604683 -0.423308 -2.568624
v -1.604683 -0.490503 -2.100828
v -1.604683 -0.557697 -2.087462
v -1.604683 -0.614662 -2.049399
v -1.604683 -0.652724 -1.992435
v -1.604683 -0.666090 -1.925240
v -1.604683 -0.652724 -1.858046
v -1.604683 -0.614662 -1.801081
v -1.604683 -0.557697 -1.763019
v -1.604683 -0.490503 -1.749653
v -1.604683 -0.423308 -1.763019
v -1.604683 -0.366343 -1.801081
v -1.604683 -0.328281 -1.858046
v -1.604683 -0.314915 -1.925240
v -1.604683 -0.328281 -1.992435
v -1.604683 -0.366343 -2.049399
v -1.604683 -0.423308 -2.087462
v -1.982035 -0.490502 -2.406402
v -2.111917 -0.490502 -2.406402
v -2.121177 -0.557697 -2.568624
v -2.121177 -0.490502 -2.581989
v -2.121177 -0.614662 -2.530561
v -2.121177 -0.652724 -2.473596
v -2.121177 -0.666090 -2.406402
v -2.121177 -0.652724 -2.339207
v -2.121177 -0.614662 -2.282243
v -2.121177 -0.557697 -2.244180
v -2.121177 -0.490502 -2.230814
v -2.121177 -0.423308 -2.244180
v -2.121177 -0.366343 -2.282243
v -2.121177 -0.328281 -2.339207
v -2.121177 -0.314915 -2.406402
v -2.121177 -0.328281 -2.473596
v -2.121177 -0.366343 -2.530561
v -2.121177 -0.423308 -2.568624
v -2.117840 -0.532625 -2.508095
v -2.117840 -0.490502 -2.516474
v -2.117840 -0.568335 -2.484235
v -2.117840 -0.592196 -2.448525
v -2.117840 -0.600575 -2.406402
v -2.117840 -0.592196 -2.364279
v -2.117840 -0.568335 -2.328569
v -2.117840 -0.532625 -2.304708
v -2.117840 -0.490502 -2.296330
v -2.117840 -0.448380 -2.304708
v -2.117840 -0.412670 -2.328569
v -2.117840 -0.388809 -2.364279
v -2.117840 -0.380430 -2.406402
v -2.117840 -0.388809 -2.448525
v -2.117840 -0.412670 -2.484235
v -2.117840 -0.448380 -2.508095
v -2.130039 -0.490502 -2.549232
v -2.130039 -0.545161 -2.538359
v -2.130039 -0.591498 -2.507398
v -2.130039 -0.622460 -2.461060
v -2.130039 -0.633332 -2.406402
v -2.130039 -0.622460 -2.351743
v -2.130039 -0.591498 -2.305406
v -2.130039 -0.545161 -2.274444
v -2.130039 -0.490502 -2.263572
v -2.130039 -0.435844 -2.274444
v -2.130039 -0.389507 -2.305406
v -2.130039 -0.358545 -2.351743
v -2.130039 -0.347673 -2.406402
v -2.130039 -0.358545 -2.461060
v -2.130039 -0.389507 -2.507398
v -2.130039 -0.435844 -2.538359
v -2.111917 -0.510830 -2.455476
v -2.111917 -0.490502 -2.459519
v -2.111917 -0.528062 -2.443962
v -2.111917 -0.539577 -2.426729
v -2.111917 -0.543620 -2.406402
v -2.111917 -0.539577 -2.386075
v -2.111917 -0.528062 -2.368842
v -2.111917 -0.510830 -2.357327
v -2.111917 -0.490502 -2.353284
v -2.111917 -0.470175 -2.357327
v -2.111917 -0.452943 -2.368842
v -2.111917 -0.441428 -2.386075
v -2.111917 -0.437385 -2.406402
v -2.111917 -0.441428 -2.426729
v -2.111917 -0.452943 -2.443962
v -2.111917 -0.470175 -2.455476
v -1.982035 -0.490503 -1.925240
v -2.111917 -0.490502 -1.925240
v -2.121177 -0.557697 -2.087462
v -2.121177 -0.490502 -2.100828
v -2.121177 -0.614662 -2.049399
v -2.121177 -0.652724 -1.992435
v -2.121177 -0.666090 -1.925240
v -2.121177 -0.652724 -1.858046
v -2.121177 -0.614662 -1.801081
v -2.121177 -0.557697 -1.763019
v -2.121177 -0.490502 -1.749653
v -2.121177 -0.423308 -1.763019
v -2.121177 -0.366343 -1.801081
v -2.121177 -0.328281 -1.858046
v -2.121177 -0.314915 -1.925240
v -2.121177 -0.328281 -1.992435
v -2.121177 -0.366343 -2.049399
v -2.121177 -0.423308 -2.087462
v -2.117840 -0.532625 -2.026934
v -2.117840 -0.490502 -2.035312
v -2.117840 -0.568335 -2.003073
v -2.117840 -0.592196 -1.967363
v -2.117840 -0.600575 -1.925240
v -2.117840 -0.592196 -1.883117
v -2.117840 -0.568335 -1.847407
v -2.117840 -0.532625 -1.823547
v -2.117840 -0.490502 -1.815168
v -2.117840 -0.448380 -1.823547
v -2.117840 -0.412670 -1.847407
v -2.117840 -0.388809 -1.883117
v -2.117840 -0.380430 -1.925240
v -2.117840 -0.388809 -1.967363
v -2.117840 -0.412670 -2.003073
v -2.117840 -0.448380 -2.026934
v -2.130039 -0.490502 -2.068070
v -2.130039 -0.545161 -2.057198
v -2.130039 -0.591498 -2.026236
v -2.130039 -0.622460 -1.979899
v -2.130039 -0.633332 -1.925240
v -2.130039 -0.622460 -1.870582
v -2.130039 -0.591498 -1.824244
v -2.130039 -0.545161 -1.793283
v -2.130039 -0.490502 -1.782410
v -2.130039 -0.435844 -1.793283
v -2.130039 -0.389507 -1.824244
v -2.130039 -0.358545 -1.870582
v -2.130039 -0.347673 -1.925240
v -2.130039 -0.358545 -1.979899
v -2.130039 -0.389507 -2.026236
v -2.130039 -0.435844 -2.057198
v -2.111917 -0.510830 -1.974315
v -2.111917 -0.490502 -1.978358
v -2.111917 -0.528062 -1.962800
v -2.111917 -0.539577 -1.945567
v -2.111917 -0.543620 -1.925240
v -2.111917 -0.539577 -1.904913
v -2.111917 -0.528062 -1.887680
v -2.111917 -0.510830 -1.876166
v -2.111917 -0.490502 -1.872123
v -2.111917 -0.470175 -1.876166
v -2.111917 -0.452943 -1.887680
v -2.111917 -0.441428 -1.904913
v -2.111917 -0.437385 -1.925240
v -2.111917 -0.441428 -1.945567
v -2.111917 -0.452943 -1.962800
v -2.111917 -0.470175 -1.974315
v -1.982035 -0.490502 -2.581989
v -1.982035 -0.557697 -2.568623
v -1.982035 -0.614662 -2.530561
v -1.982035 -0.652724 -2.473596
v -1.982035 -0.666090 -2.406402
v -1.982035 -0.652724 -2.339207
v -1.982035 -0.614662 -2.282243
v -1.982035 -0.557697 -2.244180
v -1.982035 -0.490502 -2.230814
v -1.982035 -0.423308 -2.244180
v -1.982035 -0.366343 -2.282243
v -1.982035 -0.328281 -2.339207
v -1.982035 -0.314915 -2.406402
v -1.982035 -0.328281 -2.473596
v -1.982035 -0.366343 -2.530561
v -1.982035 -0.423308 -2.568623
v -1.982035 -0.490503 -2.100828
v -1.982035 -0.557697 -2.087462
v -1.982035 -0.614662 -2.049399
v -1.982035 -0.652724 -1.992435
v -1.982035 -0.666090 -1.925240
v -1.982035 -0.652724 -1.858046
v -1.982035 -0.614662 -1.801081
v -1.982035 -0.557697 -1.763019
v -1.982035 -0.490503 -1.749653
v -1.982035 -0.423308 -1.763019
v -1.982035 -0.366343 -1.801081
v -1.982035 -0.328281 -1.858046
v -1.982035 -0.314915 -1.925240
v -1.982035 -0.328281 -1.992435
v -1.982035 -0.366343 -2.049399
v -1.982035 -0.423308 -2.087462
vn -0.0000 -0.0000 -1.0000
vn -0.0000 -0.3827 -0.9239
vn -0.0000 -0.7071 -0.7071
vn -0.0000 -0.9239 -0.3827
vn -0.0000 -1.0000 -0.0000
vn -0.0000 -0.9239 0.3827
vn -0.0000 -0.7071 0.7071
vn -0.0000 -0.3827 0.9239
vn -0.0000 -0.0000 1.0000
vn -0.0000 0.3827 0.9239
vn -0.0000 0.7071 0.7071
vn -0.0000 0.9239 0.3827
vn -0.0000 1.0000 -0.0000
vn -0.0000 0.9239 -0.3827
vn -0.0000 0.7071 -0.7071
vn -0.0000 0.3827 -0.9239
vn 0.9653 -0.0000 -0.2612
vn 0.9653 -0.0999 -0.2413
vn 0.9653 -0.1847 -0.1847
vn 0.9653 -0.2413 -0.0999
vn 0.9653 -0.2612 -0.0000
vn 0.9653 -0.2413 0.0999
vn 0.9653 -0.1847 0.1847
vn 0.9653 -0.0999 0.2413
vn 0.9653 -0.0000 0.2612
vn 0.9653 0.0999 0.2413
vn 0.9653 0.1847 0.1847
vn 0.9653 0.2413 0.0999
vn 0.9653 0.2612 -0.0000
vn 0.9653 0.2413 -0.0999
vn 0.9653 0.1847 -0.1847
vn 0.9653 0.0999 -0.2413
vn 0.9984 -0.0000 0.0569
vn 0.9984 0.0218 0.0526
vn 0.9946 0.0396 0.0956
vn 0.9946 -0.0000 0.1034
vn 0.9984 0.0403 0.0403
vn 0.9946 0.0731 0.0731
vn 0.9984 0.0526 0.0218
vn 0.9946 0.0956 0.0396
vn 0.9984 0.0569 -0.0000
vn 0.9946 0.1034 -0.0000
vn 0.9984 0.0526 -0.0218
vn 0.9946 0.0956 -0.0396
vn 0.9984 0.0403 -0.0403
vn 0.9946 0.0731 -0.0731
vn 0.9984 0.0218 -0.0526
vn 0.9946 0.0396 -0.0956
vn 0.9984 -0.0000 -0.0569
vn 0.9946 -0.0000 -0.1034
vn 0.9984 -0.0218 -0.0526
vn 0.9946 -0.0396 -0.0956
vn 0.9984 -0.0403 -0.0403
vn 0.9946 -0.0731 -0.0731
vn 0.9984 -0.0526 -0.0218
vn 0.9946 -0.0956 -0.0396
vn 0.9984 -0.0569 -0.0000
vn 0.9946 -0.1034 -0.0000
vn 0.9984 -0.0526 0.0218
vn 0.9946 -0.0956 0.0396
vn 0.9984 -0.0403 0.0403
vn 0.9946 -0.0731 0.0731
vn 0.9984 -0.0218 0.0526
vn 0.9946 -0.0396 0.0956
vn 0.9371 -0.1336 0.3224
vn 0.9371 -0.0000 0.3490
vn 0.9371 -0.2468 0.2468
vn 0.9371 -0.3224 0.1336
vn 0.9371 -0.3490 -0.0000
vn 0.9371 -0.3224 -0.1336
vn 0.9371 -0.2468 -0.2468
vn 0.9371 -0.1336 -0.3224
vn 0.9371 -0.0000 -0.3490
vn 0.9371 0.1336 -0.3224
vn 0.9371 0.2468 -0.2468
vn 0.9371 0.3224 -0.1336
vn 0.9371 0.3490 -0.0000
vn 0.9371 0.3224 0.1336
vn 0.9371 0.2468 0.2468
vn 0.9371 0.1336 0.3224
vn 1.0000 -0.0000 -0.0000
vn -1.0000 -0.0000 -0.0000
vn -0.9653 -0.0000 -0.2612
vn -0.9653 -0.0999 -0.2413
vn -0.9653 -0.1847 -0.1847
vn -0.9653 -0.2413 -0.0999
vn -0.9653 -0.2612 -0.0000
vn -0.9653 -0.2413 0.0999
vn -0.9653 -0.1847 0.1847
vn -0.9653 -0.0999 0.2413
vn -0.9653 -0.0000 0.2612
vn -0.9653 0.0999 0.2413
vn -0.9653 0.1847 0.1847
vn -0.9653 0.2413 0.0999
vn -0.9653 0.2612 -0.0000
vn -0.9653 0.2413 -0.0999
vn -0.9653 0.1847 -0.1847
vn -0.9653 0.0999 -0.2413
vn -0.9984 -0.0000 0.0569
vn -0.9946 -0.0000 0.1034
vn -0.9946 0.0396 0.0956
vn -0.9984 0.0218 0.0526
vn -0.9946 0.0731 0.0731
vn -0.9984 0.0403 0.0403
vn -0.9946 0.0956 0.0396
vn -0.9984 0.0526 0.0218
vn -0.9946 0.1034 -0.0000
vn -0.9984 0.0569 -0.0000
vn -0.9946 0.0956 -0.0396
vn -0.9984 0.0526 -0.0218
vn -0.9946 0.0731 -0.0731
vn -0.9984 0.0403 -0.0403
vn -0.9946 0.0396 -0.0956
vn -0.9984 0.0218 -0.0526
vn -0.9946 -0.0000 -0.1034
vn -0.9984 -0.0000 -0.0569
vn -0.9946 -0.0396 -0.0956
vn -0.9984 -0.0218 -0.0526
vn -0.9946 -0.0731 -0.0731
vn -0.9984 -0.0403 -0.0403
vn -0.9946 -0.0956 -0.0396
vn -0.9984 -0.0526 -0.0218
vn -0.9946 -0.1034 -0.0000
vn -0.9984 -0.0569 -0.0000
vn -0.9946 -0.0956 0.0396
vn -0.9984 -0.0526 0.0218
vn -0.9946 -0.0731 0.0731
vn -0.9984 -0.0403 0.0403
vn -0.9946 -0.0396 0.0956
vn -0.9984 -0.0218 0.0526
vn -0.9371 -0.1336 0.3224
vn -0.9371 -0.0000 0.3490
vn -0.9371 -0.2468 0.2468
vn -0.9371 -0.3224 0.1336
vn -0.9371 -0.3490 -0.0000
vn -0.9371 -0.3224 -0.1336
vn -0.9371 -0.2468 -0.2468
vn -0.9371 -0.1336 -0.3224
vn -0.9371 -0.0000 -0.3490
vn -0.9371 0.1336 -0.3224
vn -0.9371 0.2468 -0.2468
vn -0.9371 0.3224 -0.1336
vn -0.9371 0.3490 -0.0000
vn -0.9371 0.3224 0.1336
vn -0.9371 0.2468 0.2468
vn -0.9371 0.1336 0.3224
vt 1.000000 0.500000
vt 1.000000 1.000000
vt 0.937500 1.000000
vt 0.937500 0.500000
vt 0.875000 1.000000
vt 0.875000 0.500000
vt 0.812500 1.000000
vt 0.812500 0.500000
vt 0.750000 1.000000
vt 0.750000 0.500000
vt 0.687500 1.000000
vt 0.687500 0.500000
vt 0.625000 1.000000
vt 0.625000 0.500000
vt 0.562500 1.000000
vt 0.562500 0.500000
vt 0.500000 1.000000
vt 0.500000 0.500000
vt 0.437500 1.000000
vt 0.437500 0.500000
vt 0.375000 1.000000
vt 0.375000 0.500000
vt 0.312500 1.000000
vt 0.312500 0.500000
vt 0.250000 1.000000
vt 0.250000 0.500000
vt 0.187500 1.000000
vt 0.187500 0.500000
vt 0.125000 1.000000
vt 0.125000 0.500000
vt 0.062500 1.000000
vt 0.062500 0.500000
vt 0.000000 1.000000
vt 0.000000 0.500000
vt 0.250000 0.445226
vt 0.324710 0.430365
vt 0.341844 0.471731
vt 0.250000 0.490000
vt 0.388045 0.388045
vt 0.419706 0.419706
vt 0.430365 0.324710
vt 0.471731 0.341844
vt 0.445226 0.250000
vt 0.490000 0.250000
vt 0.430365 0.175290
vt 0.471731 0.158156
vt 0.388045 0.111955
vt 0.419706 0.080294
vt 0.324710 0.069635
vt 0.341844 0.028269
vt 0.250000 0.054774
vt 0.250000 0.010000
vt 0.175290 0.069635
vt 0.158156 0.028269
vt 0.111955 0.111955
vt 0.080294 0.080294
vt 0.069635 0.175290
vt 0.028269 0.158156
vt 0.054774 0.250000
vt 0.010000 0.250000
vt 0.069635 0.324710
vt 0.028269 0.341844
vt 0.111955 0.388045
vt 0.080294 0.419706
vt 0.175290 0.430365
vt 0.158156 0.471731
vt 0.250000 0.322603
vt 0.277784 0.317077
vt 0.307575 0.388999
vt 0.250000 0.400451
vt 0.301338 0.301338
vt 0.356385 0.356385
vt 0.317077 0.277784
vt 0.388999 0.307575
vt 0.322603 0.250000
vt 0.400451 0.250000
vt 0.317077 0.222216
vt 0.388999 0.192425
vt 0.301338 0.198662
vt 0.356385 0.143615
vt 0.277784 0.182923
vt 0.307575 0.111001
vt 0.250000 0.177397
vt 0.250000 0.099549
vt 0.222216 0.182923
vt 0.192425 0.111001
vt 0.198662 0.198662
vt 0.143615 0.143615
vt 0.182923 0.222216
vt 0.111001 0.192425
vt 0.177397 0.250000
vt 0.099549 0.250000
vt 0.182923 0.277784
vt 0.111001 0.307575
vt 0.198662 0.301338
vt 0.143615 0.356385
vt 0.222216 0.317077
vt 0.192425 0.388999
vt 0.269601 0.297322
vt 0.286219 0.286219
vt 0.297322 0.269601
vt 0.301221 0.250000
vt 0.297322 0.230399
vt 0.286219 0.213781
vt 0.269601 0.202678
vt 0.250000 0.198779
vt 0.230399 0.202678
vt 0.213781 0.213781
vt 0.202678 0.230399
vt 0.198779 0.250000
vt 0.202678 0.269601
vt 0.213781 0.286219
vt 0.230399 0.297322
vt 0.250000 0.301221
vt 0.750000 0.400252
vt 0.750000 0.490000
vt 0.841844 0.471731
vt 0.807499 0.388815
vt 0.919706 0.419706
vt 0.856245 0.356245
vt 0.971731 0.341844
vt 0.888815 0.307499
vt 0.990000 0.250000
vt 0.900252 0.250000
vt 0.971731 0.158156
vt 0.888815 0.192501
vt 0.919706 0.080294
vt 0.856245 0.143755
vt 0.841844 0.028269
vt 0.807499 0.111185
vt 0.750000 0.010000
vt 0.750000 0.099748
vt 0.658156 0.028269
vt 0.692501 0.111185
vt 0.580294 0.080294
vt 0.643756 0.143755
vt 0.528269 0.158156
vt 0.611185 0.192501
vt 0.510000 0.250000
vt 0.599748 0.250000
vt 0.528269 0.341844
vt 0.611185 0.307499
vt 0.580294 0.419706
vt 0.643755 0.356244
vt 0.658156 0.471731
vt 0.692501 0.388815
vt 0.750000 0.409642
vt 0.811092 0.397490
vt 0.862884 0.362884
vt 0.897490 0.311092
vt 0.909642 0.250000
vt 0.897490 0.188908
vt 0.862884 0.137116
vt 0.811092 0.102510
vt 0.750000 0.090358
vt 0.688908 0.102510
vt 0.637116 0.137116
vt 0.602510 0.188908
vt 0.590358 0.250000
vt 0.602510 0.311092
vt 0.637116 0.362884
vt 0.688908 0.397490
s 1
usemtl Tire
f 251/104/50 122/105/50 121/106/51 252/107/51
f 252/107/51 121/106/51 123/108/52 253/109/52
f 253/109/52 123/108/52 124/110/53 254/111/53
f 254/111/53 124/110/53 125/112/54 255/113/54
f 255/113/54 125/112/54 126/114/55 256/115/55
f 256/115/55 126/114/55 127/116/56 257/117/56
f 257/117/56 127/116/56 128/118/57 258/119/57
f 258/119/57 128/118/57 129/120/58 259/121/58
f 259/121/58 129/120/58 130/122/59 260/123/59
f 260/123/59 130/122/59 131/124/60 261/125/60
f 261/125/60 131/124/60 132/126/61 262/127/61
f 262/127/61 132/126/61 133/128/62 263/129/62
f 263/129/62 133/128/62 134/130/63 264/131/63
f 264/131/63 134/130/63 135/132/64 265/133/64
f 265/133/64 135/132/64 136/134/65 266/135/65
f 266/135/65 136/134/65 122/136/50 251/137/50
f 153/138/66 154/139/67 121/140/67 122/141/66
f 154/139/67 155/142/68 123/143/68 121/140/67
f 155/142/68 156/144/69 124/145/69 123/143/68
f 156/144/69 157/146/70 125/147/70 124/145/69
f 157/146/70 158/148/71 126/149/71 125/147/70
f 158/148/71 159/150/72 127/151/72 126/149/71
f 159/150/72 160/152/73 128/153/73 127/151/72
f 160/152/73 161/154/74 129/155/74 128/153/73
f 161/154/74 162/156/75 130/157/75 129/155/74
f 162/156/75 163/158/76 131/159/76 130/157/75
f 163/158/76 164/160/77 132/161/77 131/159/76
f 164/160/77 165/162/78 133/163/78 132/161/77
f 165/162/78 166/164/79 134/165/79 133/163/78
f 166/164/79 167/166/80 135/167/80 134/165/79
f 167/166/80 168/168/81 136/169/81 135/167/80
f 168/168/81 153/138/66 122/141/66 136/169/81
f 152/201/114 138/173/115 153/138/115 168/168/114
f 151/199/116 152/201/114 168/168/114 167/166/116
f 150/197/117 151/199/116 167/166/116 166/164/117
f 149/195/118 150/197/117 166/164/117 165/162/118
f 148/193/119 149/195/118 165/162/118 164/160/119
f 147/191/120 148/193/119 164/160/119 163/158/120
f 146/189/121 147/191/120 163/158/120 162/156/121
f 145/187/122 146/189/121 162/156/121 161/154/122
f 144/185/123 145/187/122 161/154/122 160/152/123
f 143/183/124 144/185/123 160/152/123 159/150/124
f 142/181/125 143/183/124 159/150/124 158/148/125
f 141/179/126 142/181/125 158/148/125 157/146/126
f 140/177/127 141/179/126 157/146/126 156/144/127
f 139/175/128 140/177/127 156/144/127 155/142/128
f 137/172/129 139/175/128 155/142/128 154/139/129
f 138/173/115 137/172/129 154/139/129 153/138/115
f 267/104/50 188/105/50 187/106/51 268/107/51
f 268/107/51 187/106/51 189/108/52 269/109/52
f 269/109/52 189/108/52 190/110/53 270/111/53
f 270/111/53 190/110/53 191/112/54 271/113/54
f 271/113/54 191/112/54 192/114/55 272/115/55
f 272/115/55 192/114/55 193/116/56 273/117/56
f 273/117/56 193/116/56 194/118/57 274/119/57
f 274/119/57 194/118/57 195/120/58 275/121/58
f 275/121/58 195/120/58 196/122/59 276/123/59
f 276/123/59 196/122/59 197/124/60 277/125/60
f 277/125/60 197/124/60 198/126/61 278/127/61
f 278/127/61 198/126/61 199/128/62 279/129/62
f 279/129/62 199/128/62 200/130/63 280/131/63
f 280/131/63 200/130/63 201/132/64 281/133/64
f 281/133/64 201/132/64 202/134/65 282/135/65
f 282/135/65 202/134/65 188/136/50 267/137/50
f 219/138/66 220/139/67 187/140/67 188/141/66
f 220/139/67 221/142/68 189/143/68 187/140/67
f 221/142/68 222/144/69 190/145/69 189/143/68
f 222/144/69 223/146/70 191/147/70 190/145/69
f 223/146/70 224/148/71 192/149/71 191/147/70
f 224/148/71 225/150/72 193/151/72 192/149/71
f 225/150/72 226/152/73 194/153/73 193/151/72
f 226/152/73 227/154/74 195/155/74 194/153/73
f 227/154/74 228/156/75 196/157/75 195/155/74
f 228/156/75 229/158/76 197/159/76 196/157/75
f 229/158/76 230/160/77 198/161/77 197/159/76
f 230/160/77 231/162/78 199/163/78 198/161/77
f 231/162/78 232/164/79 200/165/79 199/163/78
f 232/164/79 233/166/80 201/167/80 200/165/79
f 233/166/80 234/168/81 202/169/81 201/167/80
f 234/168/81 219/138/66 188/141/66 202/169/81
f 218/201/114 204/173/115 219/138/115 234/168/114
f 217/199/116 218/201/114 234/168/114 233/166/116
f 216/197/117 217/199/116 233/166/116 232/164/117
f 215/195/118 216/197/117 232/164/117 231/162/118
f 214/193/119 215/195/118 231/162/118 230/160/119
f 213/191/120 214/193/119 230/160/119 229/158/120
f 212/189/121 213/191/120 229/158/120 228/156/121
f 211/187/122 212/189/121 228/156/121 227/154/122
f 210/185/123 211/187/122 227/154/122 226/152/123
f 209/183/124 210/185/123 226/152/123 225/150/124
f 208/181/125 209/183/124 225/150/124 224/148/125
f 207/179/126 208/181/125 224/148/125 223/146/126
f 206/177/127 207/179/126 223/146/126 222/144/127
f 205/175/128 206/177/127 222/144/127 221/142/128
f 203/172/129 205/175/128 221/142/128 220/139/129
f 204/173/115 203/172/129 220/139/129 219/138/115
f 119/218/131 251/219/131 252/220/131
f 119/221/131 252/220/131 253/222/131
f 119/223/131 253/222/131 254/224/131
f 119/225/131 254/224/131 255/226/131
f 119/227/131 255/226/131 256/228/131
f 119/229/131 256/228/131 257/230/131
f 119/231/131 257/230/131 258/232/131
f 119/233/131 258/232/131 259/234/131
f 119/235/131 259/234/131 260/236/131
f 119/237/131 260/236/131 261/238/131
f 119/239/131 261/238/131 262/240/131
f 119/241/131 262/240/131 263/242/131
f 119/243/131 263/242/131 264/244/131
f 119/245/131 264/244/131 265/246/131
f 119/247/131 265/246/131 266/248/131
f 119/249/131 266/248/131 251/219/131
f 185/250/131 267/219/131 268/220/131
f 185/251/131 268/220/131 269/222/131
f 185/252/131 269/222/131 270/224/131
f 185/253/131 270/224/131 271/226/131
f 185/254/131 271/226/131 272/228/131
f 185/255/131 272/228/131 273/230/131
f 185/256/131 273/230/131 274/232/131
f 185/257/131 274/232/131 275/234/131
f 185/258/131 275/234/131 276/236/131
f 185/259/131 276/236/131 277/238/131
f 185/260/131 277/238/131 278/240/131
f 185/261/131 278/240/131 279/242/131
f 185/262/131 279/242/131 280/244/131
f 185/263/131 280/244/131 281/246/131
f 185/264/131 281/246/131 282/248/131
f 185/265/131 282/248/131 267/219/131
f 415/104/50 416/107/51 285/106/51 286/105/50
f 416/107/51 417/109/52 287/108/52 285/106/51
f 417/109/52 418/111/53 288/110/53 287/108/52
f 418/111/53 419/113/54 289/112/54 288/110/53
f 419/113/54 420/115/55 290/114/55 289/112/54
f 420/115/55 421/117/56 291/116/56 290/114/55
f 421/117/56 422/119/57 292/118/57 291/116/56
f 422/119/57 423/121/58 293/120/58 292/118/57
f 423/121/58 424/123/59 294/122/59 293/120/58
f 424/123/59 425/125/60 295/124/60 294/122/59
f 425/125/60 426/127/61 296/126/61 295/124/60
f 426/127/61 427/129/62 297/128/62 296/126/61
f 427/129/62 428/131/63 298/130/63 297/128/62
f 428/131/63 429/133/64 299/132/64 298/130/63
f 429/133/64 430/135/65 300/134/65 299/132/64
f 430/135/65 415/137/50 286/136/50 300/134/65
f 317/138/132 286/141/132 285/140/133 318/139/133
f 318/139/133 285/140/133 287/143/134 319/142/134
f 319/142/134 287/143/134 288/145/135 320/144/135
f 320/144/135 288/145/135 289/147/136 321/146/136
f 321/146/136 289/147/136 290/149/137 322/148/137
f 322/148/137 290/149/137 291/151/138 323/150/138
f 323/150/138 291/151/138 292/153/139 324/152/139
f 324/152/139 292/153/139 293/155/140 325/154/140
f 325/154/140 293/155/140 294/157/141 326/156/141
f 326/156/141 294/157/141 295/159/142 327/158/142
f 327/158/142 295/159/142 296/161/143 328/160/143
f 328/160/143 296/161/143 297/163/144 329/162/144
f 329/162/144 297/163/144 298/165/145 330/164/145
f 330/164/145 298/165/145 299/167/146 331/166/146
f 331/166/146 299/167/146 300/169/147 332/168/147
f 332/168/147 300/169/147 286/141/132 317/138/132
f 316/201/180 332/168/180 317/138/181 302/173/181
f 315/199/182 331/166/182 332/168/180 316/201/180
f 314/197/183 330/164/183 331/166/182 315/199/182
f 313/195/184 329/162/184 330/164/183 314/197/183
f 312/193/185 328/160/185 329/162/184 313/195/184
f 311/191/186 327/158/186 328/160/185 312/193/185
f 310/189/187 326/156/187 327/158/186 311/191/186
f 309/187/188 325/154/188 326/156/187 310/189/187
f 308/185/189 324/152/189 325/154/188 309/187/188
f 307/183/190 323/150/190 324/152/189 308/185/189
f 306/181/191 322/148/191 323/150/190 307/183/190
f 305/179/192 321/146/192 322/148/191 306/181/191
f 304/177/193 320/144/193 321/146/192 305/179/192
f 303/175/194 319/142/194 320/144/193 304/177/193
f 301/172/195 318/139/195 319/142/194 303/175/194
f 302/173/181 317/138/181 318/139/195 301/172/195
f 431/104/50 432/107/51 351/106/51 352/105/50
f 432/107/51 433/109/52 353/108/52 351/106/51
f 433/109/52 434/111/53 354/110/53 353/108/52
f 434/111/53 435/113/54 355/112/54 354/110/53
f 435/113/54 436/115/55 356/114/55 355/112/54
f 436/115/55 437/117/56 357/116/56 356/114/55
f 437/117/56 438/119/57 358/118/57 357/116/56
f 438/119/57 439/121/58 359/120/58 358/118/57
f 439/121/58 440/123/59 360/122/59 359/120/58
f 440/123/59 441/125/60 361/124/60 360/122/59
f 441/125/60 442/127/61 362/126/61 361/124/60
f 442/127/61 443/129/62 363/128/62 362/126/61
f 443/129/62 444/131/63 364/130/63 363/128/62
f 444/131/63 445/133/64 365/132/64 364/130/63
f 445/133/64 446/135/65 366/134/65 365/132/64
f 446/135/65 431/137/50 352/136/50 366/134/65
f 383/138/132 352/141/132 351/140/133 384/139/133
f 384/139/133 351/140/133 353/143/134 385/142/134
f 385/142/134 353/143/134 354/145/135 386/144/135
f 386/144/135 354/145/135 355/147/136 387/146/136
f 387/146/136 355/147/136 356/149/137 388/148/137
f 388/148/137 356/149/137 357/151/138 389/150/138
f 389/150/138 357/151/138 358/153/139 390/152/139
f 390/152/139 358/153/139 359/155/140 391/154/140
f 391/154/140 359/155/140 360/157/141 392/156/141
f 392/156/141 360/157/141 361/159/142 393/158/142
f 393/158/142 361/159/142 362/161/143 394/160/143
f 394/160/143 362/161/143 363/163/144 395/162/144
f 395/162/144 363/163/144 364/165/145 396/164/145
f 396/164/145 364/165/145 365/167/146 397/166/146
f 397/166/146 365/167/146 366/169/147 398/168/147
f 398/168/147 366/169/147 352/141/132 383/138/132
f 382/201/180 398/168/180 383/138/181 368/173/181
f 381/199/182 397/166/182 398/168/180 382/201/180
f 380/197/183 396/164/183 397/166/182 381/199/182
f 379/195/184 395/162/184 396/164/183 380/197/183
f 378/193/185 394/160/185 395/162/184 379/195/184
f 377/191/186 393/158/186 394/160/185 378/193/185
f 376/189/187 392/156/187 393/158/186 377/191/186
f 375/187/188 391/154/188 392/156/187 376/189/187
f 374/185/189 390/152/189 391/154/188 375/187/188
f 373/183/190 389/150/190 390/152/189 374/185/189
f 372/181/191 388/148/191 389/150/190 373/183/190
f 371/179/192 387/146/192 388/148/191 372/181/191
f 370/177/193 386/144/193 387/146/192 371/179/192
f 369/175/194 385/142/194 386/144/193 370/177/193
f 367/172/195 384/139/195 385/142/194 369/175/194
f 368/173/181 383/138/181 384/139/195 367/172/195
f 283/218/130 416/220/130 415/219/130
f 283/221/130 417/222/130 416/220/130
f 283/223/130 418/224/130 417/222/130
f 283/225/130 419/226/130 418/224/130
f 283/227/130 420/228/130 419/226/130
f 283/229/130 421/230/130 420/228/130
f 283/231/130 422/232/130 421/230/130
f 283/233/130 423/234/130 422/232/130
f 283/235/130 424/236/130 423/234/130
f 283/237/130 425/238/130 424/236/130
f 283/239/130 426/240/130 425/238/130
f 283/241/130 427/242/130 426/240/130
f 283/243/130 428/244/130 427/242/130
f 283/245/130 429/246/130 428/244/130
f 283/247/130 430/248/130 429/246/130
f 283/249/130 415/219/130 430/248/130
f 349/250/130 432/220/130 431/219/130
f 349/251/130 433/222/130 432/220/130
f 349/252/130 434/224/130 433/222/130
f 349/253/130 435/226/130 434/224/130
f 349/254/130 436/228/130 435/226/130
f 349/255/130 437/230/130 436/228/130
f 349/256/130 438/232/130 437/230/130
f 349/257/130 439/234/130 438/232/130
f 349/258/130 440/236/130 439/234/130
f 349/259/130 441/238/130 440/236/130
f 349/260/130 442/240/130 441/238/130
f 349/261/130 443/242/130 442/240/130
f 349/262/130 444/244/130 443/242/130
f 349/263/130 445/246/130 444/244/130
f 349/264/130 446/248/130 445/246/130
f 349/265/130 431/219/130 446/248/130
usemtl Secondary
f 170/170/82 169/171/83 137/172/84 138/173/85
f 169/171/83 171/174/86 139/175/87 137/172/84
f 171/174/86 172/176/88 140/177/89 139/175/87
f 172/176/88 173/178/90 141/179/91 140/177/89
f 173/178/90 174/180/92 142/181/93 141/179/91
f 174/180/92 175/182/94 143/183/95 142/181/93
f 175/182/94 176/184/96 144/185/97 143/183/95
f 176/184/96 177/186/98 145/187/99 144/185/97
f 177/186/98 178/188/100 146/189/101 145/187/99
f 178/188/100 179/190/102 147/191/103 146/189/101
f 179/190/102 180/192/104 148/193/105 147/191/103
f 180/192/104 181/194/106 149/195/107 148/193/105
f 181/194/106 182/196/108 150/197/109 149/195/107
f 182/196/108 183/198/110 151/199/111 150/197/109
f 183/198/110 184/200/112 152/201/113 151/199/111
f 184/200/112 170/170/82 138/173/85 152/201/113
f 120/202/130 169/171/83 170/170/82
f 120/203/130 171/174/86 169/171/83
f 120/204/130 172/176/88 171/174/86
f 120/205/130 173/178/90 172/176/88
f 120/206/130 174/180/92 173/178/90
f 120/207/130 175/182/94 174/180/92
f 120/208/130 176/184/96 175/182/94
f 120/209/130 177/186/98 176/184/96
f 120/210/130 178/188/100 177/186/98
f 120/211/130 179/190/102 178/188/100
f 120/212/130 180/192/104 179/190/102
f 120/213/130 181/194/106 180/192/104
f 120/214/130 182/196/108 181/194/106
f 120/215/130 183/198/110 182/196/108
f 120/216/130 184/200/112 183/198/110
f 120/217/130 170/170/82 184/200/112
f 236/170/82 235/171/83 203/172/84 204/173/85
f 235/171/83 237/174/86 205/175/87 203/172/84
f 237/174/86 238/176/88 206/177/89 205/175/87
f 238/176/88 239/178/90 207/179/91 206/177/89
f 239/178/90 240/180/92 208/181/93 207/179/91
f 240/180/92 241/182/94 209/183/95 208/181/93
f 241/182/94 242/184/96 210/185/97 209/183/95
f 242/184/96 243/186/98 211/187/99 210/185/97
f 243/186/98 244/188/100 212/189/101 211/187/99
f 244/188/100 245/190/102 213/191/103 212/189/101
f 245/190/102 246/192/104 214/193/105 213/191/103
f 246/192/104 247/194/106 215/195/107 214/193/105
f 247/194/106 248/196/108 216/197/109 215/195/107
f 248/196/108 249/198/110 217/199/111 216/197/109
f 249/198/110 250/200/112 218/201/113 217/199/111
f 250/200/112 236/170/82 204/173/85 218/201/113
f 186/202/130 235/171/83 236/170/82
f 186/203/130 237/174/86 235/171/83
f 186/204/130 238/176/88 237/174/86
f 186/205/130 239/178/90 238/176/88
f 186/206/130 240/180/92 239/178/90
f 186/207/130 241/182/94 240/180/92
f 186/208/130 242/184/96 241/182/94
f 186/209/130 243/186/98 242/184/96
f 186/210/130 244/188/100 243/186/98
f 186/211/130 245/190/102 244/188/100
f 186/212/130 246/192/104 245/190/102
f 186/213/130 247/194/106 246/192/104
f 186/214/130 248/196/108 247/194/106
f 186/215/130 249/198/110 248/196/108
f 186/216/130 250/200/112 249/198/110
f 186/217/130 236/170/82 250/200/112
f 334/170/148 302/173/149 301/172/150 333/171/151
f 333/171/151 301/172/150 303/175/152 335/174/153
f 335/174/153 303/175/152 304/177/154 336/176/155
f 336/176/155 304/177/154 305/179/156 337/178/157
f 337/178/157 305/179/156 306/181/158 338/180/159
f 338/180/159 306/181/158 307/183/160 339/182/161
f 339/182/161 307/183/160 308/185/162 340/184/163
f 340/184/163 308/185/162 309/187/164 341/186/165
f 341/186/165 309/187/164 310/189/166 342/188/167
f 342/188/167 310/189/166 311/191/168 343/190/169
f 343/190/169 311/191/168 312/193/170 344/192/171
f 344/192/171 312/193/170 313/195/172 345/194/173
f 345/194/173 313/195/172 314/197/174 346/196/175
f 346/196/175 314/197/174 315/199/176 347/198/177
f 347/198/177 315/199/176 316/201/178 348/200/179
f 348/200/179 316/201/178 302/173/149 334/170/148
f 284/202/131 334/170/148 333/171/151
f 284/203/131 333/171/151 335/174/153
f 284/204/131 335/174/153 336/176/155
f 284/205/131 336/176/155 337/178/157
f 284/206/131 337/178/157 338/180/159
f 284/207/131 338/180/159 339/182/161
f 284/208/131 339/182/161 340/184/163
f 284/209/131 340/184/163 341/186/165
f 284/210/131 341/186/165 342/188/167
f 284/211/131 342/188/167 343/190/169
f 284/212/131 343/190/169 344/192/171
f 284/213/131 344/192/171 345/194/173
f 284/214/131 345/194/173 346/196/175
f 284/215/131 346/196/175 347/198/177
f 284/216/131 347/198/177 348/200/179
f 284/217/131 348/200/179 334/170/148
f 400/170/148 368/173/149 367/172/150 399/171/151
f 399/171/151 367/172/150 369/175/152 401/174/153
f 401/174/153 369/175/152 370/177/154 402/176/155
f 402/176/155 370/177/154 371/179/156 403/178/157
f 403/178/157 371/179/156 372/181/158 404/180/159
f 404/180/159 372/181/158 373/183/160 405/182/161
f 405/182/161 373/183/160 374/185/162 406/184/163
f 406/184/163 374/185/162 375/187/164 407/186/165
f 407/186/165 375/187/164 376/189/166 408/188/167
f 408/188/167 376/189/166 377/191/168 409/190/169
f 409/190/169 377/191/168 378/193/170 410/192/171
f 410/192/171 378/193/170 379/195/172 411/194/173
f 411/194/173 379/195/172 380/197/174 412/196/175
f 412/196/175 380/197/174 381/199/176 413/198/177
f 413/198/177 381/199/176 382/201/178 414/200/179
f 414/200/179 382/201/178 368/173/149 400/170/148
f 350/202/131 400/170/148 399/171/151
f 350/203/131 399/171/151 401/174/153
f 350/204/131 401/174/153 402/176/155
f 350/205/131 402/176/155 403/178/157
f 350/206/131 403/178/157 404/180/159
f 350/207/131 404/180/159 405/182/161
f 350/208/131 405/182/161 406/184/163
f 350/209/131 406/184/163 407/186/165
f 350/210/131 407/186/165 408/188/167
f 350/211/131 408/188/167 409/190/169
f 350/212/131 409/190/169 410/192/171
f 350/213/131 410/192/171 411/194/173
f 350/214/131 411/194/173 412/196/175
f 350/215/131 412/196/175 413/198/177
f 350/216/131 413/198/177 414/200/179
f 350/217/131 414/200/179 400/170/148
