# Blender 5.2.1 LTS
# www.blender.org
mtllib us_trailer_rear.mtl
o Cube.003
v -1.992460 0.669012 -6.064089
v -1.594258 0.669012 -6.064089
v -1.992460 0.669012 -5.131135
v -1.594258 0.669012 -5.131135
v -1.594258 -0.273946 -6.064089
v -1.992460 -0.273946 -6.064089
v -1.594258 -0.273946 -5.131135
v -1.992460 -0.273946 -5.131135
v -1.594258 -0.526452 -5.131135
v -1.992460 -0.526452 -5.131135
v -1.594258 -0.526452 -6.024384
v -1.594258 -0.486747 -6.064089
v -1.594258 -0.514823 -6.052460
v -1.992460 -0.486747 -6.064089
v -1.992460 -0.526452 -6.024384
v -1.992460 -0.514823 -6.052460
v -2.137887 -0.273946 -1.792596
v -2.137887 -0.256824 -1.775474
v -2.150870 -0.256824 -1.792596
v -2.137887 -0.268931 -1.780489
v -2.145383 -0.266709 -1.782711
v -2.147067 -0.256824 -1.780489
v -2.147067 -0.268931 -1.792596
v -2.150870 0.651889 -1.792596
v -2.137887 0.651889 -1.775474
v -2.137887 0.669012 -1.792596
v -2.147067 0.651889 -1.780489
v -2.145383 0.661775 -1.782711
v -2.137887 0.663997 -1.780489
v -2.147067 0.663997 -1.792596
v -2.150870 -0.256824 -6.705856
v -2.137887 -0.256824 -6.722979
v -2.137887 -0.273946 -6.705856
v -2.147067 -0.256824 -6.717964
v -2.145383 -0.266709 -6.715742
v -2.137887 -0.268931 -6.717964
v -2.147067 -0.268931 -6.705856
v -2.137887 0.669012 -6.705856
v -2.137887 0.651889 -6.722979
v -2.150870 0.651889 -6.705856
v -2.137887 0.663997 -6.717964
v -2.145383 0.661775 -6.715742
v -2.147067 0.651889 -6.717964
v -2.147067 0.663997 -6.705856
v -1.435848 -0.256824 -1.792596
v -1.448831 -0.256824 -1.775474
v -1.448831 -0.273946 -1.792596
v -1.439650 -0.256824 -1.780489
v -1.441335 -0.266709 -1.782711
v -1.448831 -0.268931 -1.780489
v -1.439650 -0.268931 -1.792596
v -1.448831 0.669012 -1.792596
v -1.448831 0.651889 -1.775474
v -1.435848 0.651889 -1.792596
v -1.448831 0.663997 -1.780489
v -1.441335 0.661775 -1.782711
v -1.439650 0.651889 -1.780489
v -1.439650 0.663997 -1.792596
v -1.448831 -0.256824 -6.722979
v -1.435848 -0.256824 -6.705856
v -1.448831 -0.273946 -6.705856
v -1.439650 -0.256824 -6.717964
v -1.441335 -0.266709 -6.715742
v -1.439650 -0.268931 -6.705856
v -1.448831 -0.268931 -6.717964
v -1.448831 0.669012 -6.705856
v -1.435848 0.651889 -6.705856
v -1.448831 0.651889 -6.722979
v -1.439650 0.663997 -6.705856
v -1.441335 0.661775 -6.715742
v -1.439650 0.651889 -6.717964
v -1.448831 0.663997 -6.717964
v -2.137887 -0.273946 -6.064089
v -2.150870 -0.256824 -6.064089
v -2.147067 -0.268931 -6.064089
v -2.150870 -0.256824 -5.131135
v -2.137887 -0.273946 -5.131135
v -2.147067 -0.268931 -5.131135
v -2.137887 0.669012 -5.131135
v -2.150870 0.651889 -5.131135
v -2.147067 0.663997 -5.131135
v -2.150870 0.651889 -6.064089
v -2.137887 0.669012 -6.064089
v -2.147067 0.663997 -6.064089
v -1.448831 -0.273946 -5.131135
v -1.435848 -0.256824 -5.131135
v -1.439650 -0.268931 -5.131135
v -1.435848 -0.256824 -6.064089
v -1.448831 -0.273946 -6.064089
v -1.439650 -0.268931 -6.064089
v -1.448831 0.669012 -6.064089
v -1.435848 0.651889 -6.064089
v -1.439650 0.663997 -6.064089
v -1.435848 0.651889 -5.131135
v -1.448831 0.669012 -5.131135
v -1.439650 0.663997 -5.131135
v -1.594258 -0.273946 -6.705856
v -1.594258 -0.256824 -6.722979
v -1.594258 -0.268931 -6.717964
v -1.992460 -0.256824 -6.722979
v -1.992460 -0.273946 -6.705856
v -1.992460 -0.268931 -6.717964
v -1.992460 0.669012 -6.705856
v -1.992460 0.651889 -6.722979
v -1.992460 0.663997 -6.717964
v -1.594258 0.651889 -6.722979
v -1.594258 0.669012 -6.705856
v -1.594258 0.663997 -6.717964
v -1.992460 -0.273946 -1.792596
v -1.992460 -0.256824 -1.775474
v -1.992460 -0.268931 -1.780489
v -1.594258 -0.256824 -1.775474
v -1.594258 -0.273946 -1.792596
v -1.594258 -0.268931 -1.780489
v -1.594258 0.669012 -1.792596
v -1.594258 0.651889 -1.775474
v -1.594258 0.663997 -1.780489
v -1.992460 0.651889 -1.775474
v -1.992460 0.669012 -1.792596
v -1.992460 0.663997 -1.780489
v -1.941680 -0.548623 -3.139456
v -2.050017 -0.548623 -3.139455
v -1.645038 -0.548623 -3.139455
v -2.137887 -0.559434 -5.122222
v -1.448831 -0.559434 -5.122222
v -1.536701 -0.548623 -3.139455
v -1.992460 -0.559434 -5.122222
v -1.594258 -0.559434 -5.122222
v -2.147067 -0.268931 -3.139455
v -2.150870 -0.256824 -3.139455
v -1.439650 0.663997 -3.139455
v -1.435848 0.651889 -3.139455
v -2.137887 0.669012 -3.139455
v -1.536701 -0.273946 -3.139455
v -1.992460 0.669012 -3.139455
v -1.645038 -0.273946 -3.139455
v -2.050017 -0.273946 -3.139455
v -1.448831 0.669012 -3.139455
v -2.147067 0.663997 -3.139456
v -2.150870 0.651889 -3.139456
v -1.439650 -0.268931 -3.139456
v -1.435848 -0.256824 -3.139456
v -1.941680 -0.273946 -3.139456
v -1.594258 0.669012 -3.139456
v -2.135347 -0.269537 -3.139455
v -1.453254 -0.269634 -3.139456
v -2.137887 0.669012 -6.652362
v -2.137887 0.669012 -6.679780
v -2.147067 0.663997 -6.679779
v -2.147067 0.663997 -6.652362
v -2.150870 0.651889 -6.679779
v -2.150870 0.651889 -6.652362
v -1.448831 -0.273946 -6.652362
v -1.448831 -0.273946 -6.679780
v -1.439650 -0.268931 -6.679779
v -1.439650 -0.268931 -6.652362
v -1.435848 -0.256824 -6.679779
v -1.435848 -0.256824 -6.652362
v -2.137887 -0.273946 -6.679779
v -2.137887 -0.273946 -6.652362
v -2.147067 -0.268931 -6.652362
v -2.147067 -0.268931 -6.679779
v -2.150870 -0.256824 -6.652362
v -2.150870 -0.256824 -6.679779
v -1.448831 0.669012 -6.679779
v -1.448831 0.669012 -6.652362
v -1.439650 0.663997 -6.652362
v -1.439650 0.663997 -6.679779
v -1.435848 0.651889 -6.652362
v -1.435848 0.651889 -6.679779
v -1.992460 -0.273946 -6.679779
v -1.992460 -0.273946 -6.652362
v -1.992460 0.669012 -6.652362
v -1.992460 0.669012 -6.679780
v -1.594258 -0.273946 -6.652362
v -1.594258 -0.273946 -6.679780
v -1.594258 0.669012 -6.679779
v -1.594258 0.669012 -6.652362
v -1.448831 -0.447449 -6.652362
v -1.448831 -0.447449 -6.679780
v -2.137887 -0.447449 -6.679779
v -2.137887 -0.447449 -6.652362
v -1.992460 -0.447449 -6.679779
v -1.992460 -0.447449 -6.652362
v -1.594258 -0.447449 -6.652362
v -1.594258 -0.447449 -6.679780
vn -0.0000 1.0000 -0.0000
vn -0.0000 -0.0000 1.0000
vn -0.0000 -0.9239 -0.3827
vn -0.0000 -0.3827 -0.9239
vn -0.0000 -0.0000 -1.0000
vn -0.0000 -1.0000 -0.0000
vn 1.0000 -0.0000 -0.0000
vn -1.0000 -0.0000 -0.0000
vn -0.4129 -0.8553 0.3131
vn -0.4129 -0.3131 0.8553
vn -0.9309 -0.2584 0.2584
vn -0.9309 0.2584 0.2584
vn -0.4129 0.3131 0.8553
vn -0.4129 0.8553 0.3131
vn -0.9309 -0.2584 -0.2584
vn -0.4129 -0.3131 -0.8553
vn -0.4129 -0.8553 -0.3130
vn -0.4129 0.8553 -0.3131
vn -0.4129 0.3131 -0.8553
vn -0.9309 0.2584 -0.2584
vn 0.9309 -0.2584 0.2584
vn 0.4129 -0.3131 0.8553
vn 0.4129 -0.8553 0.3131
vn 0.4128 0.8553 0.3131
vn 0.4129 0.3131 0.8553
vn 0.9309 0.2584 0.2584
vn 0.4129 -0.3131 -0.8553
vn 0.9309 -0.2584 -0.2584
vn 0.4129 -0.8553 -0.3131
vn 0.4129 0.8553 -0.3131
vn 0.9309 0.2584 -0.2584
vn 0.4129 0.3131 -0.8553
vn -0.0000 -1.0000 0.0055
vn -0.0516 -0.9987 -0.0034
vn -0.4794 -0.0000 0.8776
vn -0.9540 -0.0000 0.2997
vn -0.4794 0.8776 -0.0000
vn -0.9540 0.2997 -0.0000
vn -0.4794 -0.0000 -0.8776
vn -0.9540 -0.0000 -0.2996
vn -0.0000 0.9239 -0.3827
vn -0.0000 0.3827 -0.9239
vn 0.9540 -0.0000 -0.2996
vn 0.4794 -0.0000 -0.8776
vn 0.4794 -0.8776 -0.0000
vn 0.9540 -0.2997 -0.0000
vn -0.9540 -0.2997 -0.0000
vn 0.4794 0.8776 -0.0000
vn 0.4794 -0.0000 0.8776
vn 0.9540 -0.0000 0.2997
vn -0.0000 -0.9239 0.3827
vn -0.0000 -0.3827 0.9239
vn -0.0000 0.9239 0.3827
vn -0.0000 0.3827 0.9239
vn -0.4794 -0.8776 -0.0000
vn 0.0516 -0.9987 0.0023
vn 0.9540 0.2997 -0.0000
vn -0.0000 -0.0312 -0.9995
vn -0.0516 -0.9987 0.0023
vn 0.9990 0.0007 0.0442
vn -0.9990 0.0007 0.0442
vn 0.0516 -0.9987 -0.0034
vn -0.2597 -0.9657 -0.0018
vn -0.2597 -0.9657 0.0012
vn 0.2434 -0.9699 0.0013
vn 0.2434 -0.9699 -0.0020
vt 0.708333 0.583333
vt 0.791667 0.583333
vt 0.791667 0.666667
vt 0.708333 0.666667
vt 0.291667 0.666667
vt 0.208333 0.666667
vt 0.291667 0.586880
vt 0.208333 0.586880
vt 0.208333 0.583680
vt 0.291667 0.583680
vt 0.208333 0.583333
vt 0.291667 0.583333
vt 0.208333 0.583333
vt 0.291667 0.583333
vt 0.131830 0.749575
vt 0.131830 0.750000
vt 0.127887 0.750000
vt 0.125000 0.749575
vt 0.379539 0.993170
vt 0.379539 1.000000
vt 0.376919 1.000000
vt 0.375000 0.993170
vt 0.379539 0.000425
vt 0.375000 0.000425
vt 0.375000 0.000180
vt 0.379539 0.000000
vt 0.620461 0.000425
vt 0.620461 0.000000
vt 0.623081 0.000000
vt 0.625000 0.000425
vt 0.620461 0.993170
vt 0.625000 0.993170
vt 0.625000 0.997113
vt 0.620461 1.000000
vt 0.868170 0.749575
vt 0.875000 0.749575
vt 0.875000 0.749820
vt 0.868170 0.750000
vt 0.379539 0.248326
vt 0.379539 0.250000
vt 0.375959 0.251443
vt 0.375000 0.248326
vt 0.379539 0.256830
vt 0.375000 0.256830
vt 0.131830 0.501674
vt 0.125000 0.501674
vt 0.125000 0.500707
vt 0.131830 0.500000
vt 0.868170 0.501674
vt 0.868170 0.500000
vt 0.872113 0.500000
vt 0.875000 0.501674
vt 0.620461 0.256830
vt 0.620461 0.250000
vt 0.624041 0.249646
vt 0.625000 0.256830
vt 0.620461 0.248326
vt 0.625000 0.248326
vt 0.379539 0.749575
vt 0.379539 0.750000
vt 0.375640 0.750902
vt 0.375000 0.749575
vt 0.379539 0.756830
vt 0.371585 0.753415
vt 0.368170 0.749575
vt 0.631830 0.749575
vt 0.628415 0.753415
vt 0.625323 0.749940
vt 0.625000 0.749575
vt 0.620461 0.756830
vt 0.620461 0.750000
vt 0.620461 0.749575
vt 0.379539 0.493170
vt 0.379539 0.500000
vt 0.374677 0.500236
vt 0.371585 0.496585
vt 0.379539 0.501674
vt 0.375000 0.501674
vt 0.368170 0.501674
vt 0.631830 0.501674
vt 0.625000 0.501674
vt 0.624361 0.499274
vt 0.628415 0.496585
vt 0.620461 0.501674
vt 0.620461 0.500000
vt 0.620461 0.493170
vt 0.131830 0.666667
vt 0.208333 0.716127
vt 0.131830 0.716127
vt 0.125825 0.716127
vt 0.868170 0.528894
vt 0.875000 0.528894
vt 0.625000 0.221106
vt 0.620461 0.221106
vt 0.208333 0.501674
vt 0.208333 0.500000
vt 0.375000 0.333333
vt 0.379539 0.333333
vt 0.708333 0.501674
vt 0.708333 0.500000
vt 0.625000 0.416667
vt 0.620461 0.416667
vt 0.368170 0.528894
vt 0.375000 0.528894
vt 0.379539 0.528894
vt 0.375000 0.033873
vt 0.379539 0.033873
vt 0.631830 0.716127
vt 0.625000 0.716127
vt 0.291667 0.749575
vt 0.291667 0.750000
vt 0.375000 0.833333
vt 0.379539 0.833333
vt 0.791667 0.749575
vt 0.791667 0.750000
vt 0.625000 0.916667
vt 0.620461 0.916667
vt 0.131830 0.556113
vt 0.131830 0.583333
vt 0.125000 0.583333
vt 0.125000 0.556113
vt 0.375000 0.193886
vt 0.375000 0.166667
vt 0.379539 0.166667
vt 0.379539 0.193886
vt 0.125000 0.666667
vt 0.375000 0.083333
vt 0.379539 0.083333
vt 0.868170 0.716127
vt 0.868170 0.666667
vt 0.875000 0.666667
vt 0.875000 0.716127
vt 0.625000 0.033873
vt 0.625000 0.083333
vt 0.620461 0.083333
vt 0.620461 0.033873
vt 0.868170 0.583333
vt 0.875000 0.583333
vt 0.625000 0.166667
vt 0.620461 0.166667
vt 0.368170 0.716127
vt 0.368170 0.666667
vt 0.374043 0.716127
vt 0.375000 0.716127
vt 0.375000 0.666667
vt 0.379539 0.666667
vt 0.379539 0.716127
vt 0.368170 0.583333
vt 0.375000 0.583333
vt 0.379539 0.583333
vt 0.631830 0.556113
vt 0.631830 0.583333
vt 0.625000 0.583333
vt 0.625000 0.556113
vt 0.620461 0.583333
vt 0.620461 0.556113
vt 0.631830 0.666667
vt 0.625000 0.666667
vt 0.620461 0.666667
vt 0.291667 0.501674
vt 0.291667 0.500000
vt 0.375000 0.416667
vt 0.379539 0.416667
vt 0.791667 0.501674
vt 0.791667 0.500000
vt 0.625000 0.333333
vt 0.620461 0.333333
vt 0.208333 0.749575
vt 0.208333 0.750000
vt 0.375000 0.916667
vt 0.379539 0.916667
vt 0.708333 0.749575
vt 0.708333 0.750000
vt 0.625000 0.833333
vt 0.620461 0.833333
vt 0.208333 0.556113
vt 0.379539 0.221106
vt 0.791667 0.556113
vt 0.868170 0.556113
vt 0.791667 0.716127
vt 0.291667 0.716127
vt 0.620461 0.716127
vt 0.379539 0.556113
vt 0.291667 0.556113
vt 0.368170 0.556113
vt 0.708333 0.556113
vt 0.708333 0.716127
vt 0.125000 0.716127
vt 0.791667 0.528894
vt 0.708333 0.528894
vt 0.291667 0.528894
vt 0.208333 0.528894
vt 0.631830 0.528894
vt 0.620461 0.528894
vt 0.620461 0.193887
vt 0.131830 0.528894
vt 0.625000 0.528894
vt 0.375000 0.221106
vt 0.125000 0.528894
vt 0.375000 0.556113
vt 0.625000 0.193886
vt 0.875000 0.556113
s 0
usemtl Base
f 2/1/1 1/2/1 3/3/1 4/4/1
f 17/15/9 20/16/9 21/17/9 23/18/9
f 18/19/10 22/20/10 21/21/10 20/22/10
f 19/23/11 23/24/11 21/25/11 22/26/11
f 24/27/12 27/28/12 28/29/12 30/30/12
f 25/31/13 29/32/13 28/33/13 27/34/13
f 26/35/14 30/36/14 28/37/14 29/38/14
f 31/39/15 34/40/15 35/41/15 37/42/15
f 32/43/16 36/44/16 35/41/16 34/40/16
f 33/45/17 37/46/17 35/47/17 36/48/17
f 38/49/18 41/50/18 42/51/18 44/52/18
f 39/53/19 43/54/19 42/55/19 41/56/19
f 40/57/20 44/58/20 42/55/20 43/54/20
f 45/59/21 48/60/21 49/61/21 51/62/21
f 46/63/22 50/64/22 49/61/22 48/60/22
f 47/65/23 51/62/23 49/61/23 50/64/23
f 52/66/24 55/67/24 56/68/24 58/69/24
f 53/70/25 57/71/25 56/68/25 55/67/25
f 54/72/26 58/69/26 56/68/26 57/71/26
f 59/73/27 62/74/27 63/75/27 65/76/27
f 60/77/28 64/78/28 63/75/28 62/74/28
f 61/79/29 65/76/29 63/75/29 64/78/29
f 66/80/30 69/81/30 70/82/30 72/83/30
f 67/84/31 71/85/31 70/82/31 69/81/31
f 68/86/32 72/83/32 70/82/32 71/85/32
f 124/87/33 127/6/33 121/88/33 122/89/33
f 137/89/34 17/15/34 145/90/34
f 18/19/35 25/31/35 27/34/35 22/20/35
f 22/26/36 27/28/36 24/27/36 19/23/36
f 148/91/37 38/49/37 44/52/37 149/92/37
f 149/93/38 44/58/38 40/57/38 151/94/38
f 39/53/39 32/43/39 34/40/39 43/54/39
f 43/54/40 34/40/40 31/39/40 40/57/40
f 101/95/3 33/45/3 36/48/3 102/96/3
f 102/97/4 36/44/4 32/43/4 100/98/4
f 107/99/41 66/80/41 72/83/41 108/100/41
f 108/101/42 72/83/42 68/86/42 106/102/42
f 67/84/43 60/77/43 62/74/43 71/85/43
f 71/85/44 62/74/44 59/73/44 68/86/44
f 154/103/45 61/79/45 64/78/45 155/104/45
f 155/104/46 64/78/46 60/77/46 157/105/46
f 129/106/47 23/24/47 19/23/47 130/107/47
f 138/108/48 52/66/48 58/69/48 131/109/48
f 53/70/49 46/63/49 48/60/49 57/71/49
f 57/71/50 48/60/50 45/59/50 54/72/50
f 113/110/51 47/65/51 50/64/51 114/111/51
f 114/112/52 50/64/52 46/63/52 112/113/52
f 119/114/53 26/35/53 29/38/53 120/115/53
f 120/116/54 29/32/54 25/31/54 118/117/54
f 160/118/55 73/119/55 75/120/55 161/121/55
f 161/122/47 75/123/47 74/124/47 163/125/47
f 73/119/55 77/87/55 78/126/55 75/120/55
f 75/123/47 78/127/47 76/128/47 74/124/47
f 133/129/37 79/130/37 81/131/37 139/132/37
f 139/133/38 81/134/38 80/135/38 140/136/38
f 79/130/37 83/137/37 84/138/37 81/131/37
f 81/134/38 84/139/38 82/140/38 80/135/38
f 134/141/56 85/142/56 146/143/56
f 141/144/46 87/145/46 86/146/46 142/147/46
f 85/142/45 89/148/45 90/149/45 87/145/45
f 87/145/46 90/149/46 88/150/46 86/146/46
f 166/151/48 91/152/48 93/153/48 167/154/48
f 167/154/57 93/153/57 92/155/57 169/156/57
f 91/152/48 95/157/48 96/158/48 93/153/48
f 93/153/57 96/158/57 94/159/57 92/155/57
f 61/79/3 97/160/3 99/161/3 65/76/3
f 65/76/4 99/162/4 98/163/4 59/73/4
f 97/160/3 101/95/3 102/96/3 99/161/3
f 99/162/4 102/97/4 100/98/4 98/163/4
f 38/49/41 103/164/41 105/165/41 41/50/41
f 41/56/42 105/166/42 104/167/42 39/53/42
f 103/164/41 107/99/41 108/100/41 105/165/41
f 105/166/42 108/101/42 106/102/42 104/167/42
f 17/15/51 109/168/51 111/169/51 20/16/51
f 20/22/52 111/170/52 110/171/52 18/19/52
f 109/168/51 113/110/51 114/111/51 111/169/51
f 111/170/52 114/112/52 112/113/52 110/171/52
f 52/66/53 115/172/53 117/173/53 55/67/53
f 55/67/54 117/174/54 116/175/54 53/70/54
f 115/172/53 119/114/53 120/115/53 117/173/53
f 117/174/54 120/116/54 118/117/54 116/175/54
f 51/62/46 141/144/46 142/147/46 45/59/46
f 130/107/8 140/136/8 80/135/8 76/128/8
f 110/171/2 118/117/2 25/31/2 18/19/2
f 19/23/8 24/27/8 140/136/8 130/107/8
f 32/43/5 39/53/5 104/167/5 100/98/5
f 160/118/6 172/176/6 6/13/6 73/119/6
f 164/177/8 151/94/8 40/57/8 31/39/8
f 173/178/1 147/179/1 83/137/1 1/2/1
f 46/63/2 53/70/2 116/175/2 112/113/2
f 135/180/1 133/129/1 26/35/1 119/114/1
f 136/181/6 134/141/6 47/65/6 113/110/6
f 142/147/7 132/182/7 54/72/7 45/59/7
f 158/183/7 169/156/7 92/155/7 88/150/7
f 175/184/6 153/185/6 89/148/6 5/14/6
f 98/163/5 106/102/5 68/86/5 59/73/5
f 166/151/1 178/186/1 2/1/1 91/152/1
f 76/128/8 80/135/8 82/140/8 74/124/8
f 73/119/6 6/13/6 8/6/6 77/87/6
f 1/2/1 83/137/1 79/130/1 3/3/1
f 88/150/7 92/155/7 94/159/7 86/146/7
f 5/14/6 89/148/6 85/142/6 7/5/6
f 91/152/1 2/1/1 4/4/1 95/157/1
f 100/98/5 104/167/5 106/102/5 98/163/5
f 172/176/6 175/184/6 5/14/6 6/13/6
f 178/186/1 173/178/1 1/2/1 2/1/1
f 112/113/2 116/175/2 118/117/2 110/171/2
f 138/108/1 144/187/1 115/172/1 52/66/1
f 143/88/6 136/181/6 113/110/6 109/168/6
f 77/87/58 8/6/58 127/6/58 124/87/58
f 136/181/2 143/88/2 121/88/2 123/181/2
f 143/88/2 137/89/2 122/89/2 121/88/2
f 134/141/2 136/181/2 123/181/2 126/141/2
f 127/6/33 128/5/33 123/181/33 121/88/33
f 128/5/33 125/142/33 126/141/33 123/181/33
f 77/87/59 137/89/59 145/90/59
f 78/127/47 129/106/47 130/107/47 76/128/47
f 95/157/48 138/108/48 131/109/48 96/158/48
f 96/158/57 131/109/57 132/182/57 94/159/57
f 7/5/58 85/142/58 125/142/58 128/5/58
f 3/3/1 79/130/1 133/129/1 135/180/1
f 85/142/60 134/141/60 126/141/60 125/142/60
f 86/146/7 94/159/7 132/182/7 142/147/7
f 95/157/1 4/4/1 144/187/1 138/108/1
f 137/89/61 77/87/61 124/87/61 122/89/61
f 4/4/1 3/3/1 135/180/1 144/187/1
f 137/89/6 143/88/6 109/168/6 17/15/6
f 47/65/62 134/141/62 146/143/62
f 30/30/38 139/133/38 140/136/38 24/27/38
f 26/35/37 133/129/37 139/132/37 30/36/37
f 131/109/57 58/69/57 54/72/57 132/182/57
f 144/187/1 135/180/1 119/114/1 115/172/1
f 145/90/63 17/15/63 23/18/63 129/188/63
f 145/90/64 129/188/64 78/126/64 77/87/64
f 146/143/65 85/142/65 87/145/65 141/144/65
f 146/143/66 141/144/66 51/62/66 47/65/66
f 107/99/1 103/164/1 174/189/1 177/190/1
f 177/190/1 174/189/1 173/178/1 178/186/1
f 101/95/6 97/160/6 176/191/6 171/192/6
f 153/185/2 175/184/2 185/184/2 179/185/2
f 66/80/1 107/99/1 177/190/1 165/193/1
f 165/193/1 177/190/1 178/186/1 166/151/1
f 97/160/6 61/79/6 154/103/6 176/191/6
f 171/192/5 176/191/5 186/191/5 183/192/5
f 60/77/7 67/84/7 170/194/7 157/105/7
f 157/105/7 170/194/7 169/156/7 158/183/7
f 103/164/1 38/49/1 148/91/1 174/189/1
f 174/189/1 148/91/1 147/179/1 173/178/1
f 74/124/8 82/140/8 152/195/8 163/125/8
f 163/125/8 152/195/8 151/94/8 164/177/8
f 33/45/6 101/95/6 171/192/6 159/196/6
f 172/176/2 160/118/2 182/118/2 184/176/2
f 69/81/57 168/197/57 170/194/57 67/84/57
f 168/197/57 167/154/57 169/156/57 170/194/57
f 66/80/48 165/193/48 168/197/48 69/81/48
f 165/193/48 166/151/48 167/154/48 168/197/48
f 37/42/47 162/198/47 164/177/47 31/39/47
f 162/198/47 161/122/47 163/125/47 164/177/47
f 33/45/55 159/196/55 162/199/55 37/46/55
f 159/196/55 160/118/55 161/121/55 162/199/55
f 90/149/46 156/200/46 158/183/46 88/150/46
f 156/200/46 155/104/46 157/105/46 158/183/46
f 89/148/45 153/185/45 156/200/45 90/149/45
f 153/185/45 154/103/45 155/104/45 156/200/45
f 84/139/38 150/201/38 152/195/38 82/140/38
f 150/201/38 149/93/38 151/94/38 152/195/38
f 83/137/37 147/179/37 150/202/37 84/138/37
f 147/179/37 148/91/37 149/92/37 150/202/37
f 183/192/6 186/191/6 185/184/6 184/176/6
f 186/191/6 180/103/6 179/185/6 185/184/6
f 181/196/6 183/192/6 184/176/6 182/118/6
f 159/196/5 171/192/5 183/192/5 181/196/5
f 160/118/8 159/196/8 181/196/8 182/118/8
f 175/184/2 172/176/2 184/176/2 185/184/2
f 154/103/7 153/185/7 179/185/7 180/103/7
f 176/191/5 154/103/5 180/103/5 186/191/5
usemtl Secondary
f 7/5/2 8/6/2 10/6/2 9/5/2
f 11/7/3 15/8/3 16/9/3 13/10/3
f 13/10/4 16/9/4 14/11/4 12/12/4
f 6/13/5 5/14/5 12/12/5 14/11/5
f 15/8/6 11/7/6 9/5/6 10/6/6
f 5/14/7 7/5/7 9/5/7 11/7/7 13/10/7 12/12/7
f 8/6/8 6/13/8 14/11/8 16/9/8 15/8/8 10/6/8
f 8/6/58 7/5/58 128/5/58 127/6/58
o Cylinder.002
v -1.604683 -0.490503 -5.839252
v -1.474801 -0.490502 -5.839252
v -1.465541 -0.557697 -6.001473
v -1.465541 -0.490502 -6.014839
v -1.465541 -0.614662 -5.963411
v -1.465541 -0.652724 -5.906446
v -1.465541 -0.666090 -5.839252
v -1.465541 -0.652724 -5.772058
v -1.465541 -0.614662 -5.715093
v -1.465541 -0.557697 -5.677030
v -1.465541 -0.490502 -5.663664
v -1.465541 -0.423308 -5.677030
v -1.465541 -0.366343 -5.715093
v -1.465541 -0.328281 -5.772058
v -1.465541 -0.314915 -5.839252
v -1.465541 -0.328281 -5.906446
v -1.465541 -0.366343 -5.963411
v -1.465541 -0.423308 -6.001473
v -1.468878 -0.532625 -5.940945
v -1.468878 -0.490502 -5.949324
v -1.468878 -0.568335 -5.917085
v -1.468878 -0.592196 -5.881375
v -1.468878 -0.600575 -5.839252
v -1.468878 -0.592196 -5.797129
v -1.468878 -0.568335 -5.761419
v -1.468878 -0.532625 -5.737558
v -1.468878 -0.490502 -5.729180
v -1.468878 -0.448380 -5.737558
v -1.468878 -0.412670 -5.761419
v -1.468878 -0.388809 -5.797129
v -1.468878 -0.380430 -5.839252
v -1.468878 -0.388809 -5.881375
v -1.468878 -0.412670 -5.917085
v -1.468878 -0.448380 -5.940945
v -1.456679 -0.490502 -5.982081
v -1.456678 -0.545161 -5.971210
v -1.456678 -0.591498 -5.940248
v -1.456678 -0.622460 -5.893910
v -1.456678 -0.633332 -5.839252
v -1.456678 -0.622460 -5.784593
v -1.456678 -0.591498 -5.738256
v -1.456678 -0.545161 -5.707294
v -1.456678 -0.490502 -5.696422
v -1.456678 -0.435844 -5.707294
v -1.456678 -0.389507 -5.738256
v -1.456679 -0.358545 -5.784593
v -1.456679 -0.347673 -5.839252
v -1.456679 -0.358545 -5.893910
v -1.456679 -0.389507 -5.940248
v -1.456679 -0.435844 -5.971210
v -1.474801 -0.510830 -5.888326
v -1.474801 -0.490502 -5.892369
v -1.474801 -0.528062 -5.876812
v -1.474801 -0.539577 -5.859579
v -1.474801 -0.543620 -5.839252
v -1.474801 -0.539577 -5.818924
v -1.474801 -0.528062 -5.801692
v -1.474801 -0.510830 -5.790177
v -1.474801 -0.490502 -5.786134
v -1.474801 -0.470175 -5.790177
v -1.474801 -0.452943 -5.801692
v -1.474801 -0.441428 -5.818924
v -1.474801 -0.437385 -5.839252
v -1.474801 -0.441428 -5.859579
v -1.474801 -0.452943 -5.876812
v -1.474801 -0.470175 -5.888326
v -1.604683 -0.490503 -5.358090
v -1.474801 -0.490503 -5.358090
v -1.465541 -0.557697 -5.520312
v -1.465541 -0.490503 -5.533678
v -1.465541 -0.614662 -5.482249
v -1.465541 -0.652724 -5.425284
v -1.465541 -0.666090 -5.358090
v -1.465541 -0.652724 -5.290896
v -1.465541 -0.614662 -5.233931
v -1.465541 -0.557697 -5.195868
v -1.465541 -0.490503 -5.182503
v -1.465541 -0.423308 -5.195868
v -1.465541 -0.366343 -5.233931
v -1.465541 -0.328281 -5.290896
v -1.465541 -0.314915 -5.358090
v -1.465541 -0.328281 -5.425284
v -1.465541 -0.366343 -5.482249
v -1.465541 -0.423308 -5.520312
v -1.468878 -0.532625 -5.459784
v -1.468878 -0.490503 -5.468163
v -1.468878 -0.568335 -5.435923
v -1.468878 -0.592196 -5.400213
v -1.468878 -0.600575 -5.358090
v -1.468878 -0.592196 -5.315968
v -1.468878 -0.568335 -5.280257
v -1.468878 -0.532625 -5.256397
v -1.468878 -0.490503 -5.248018
v -1.468878 -0.448380 -5.256397
v -1.468878 -0.412670 -5.280257
v -1.468878 -0.388809 -5.315968
v -1.468878 -0.380430 -5.358090
v -1.468878 -0.388809 -5.400213
v -1.468878 -0.412670 -5.435923
v -1.468878 -0.448380 -5.459784
v -1.456679 -0.490503 -5.500920
v -1.456678 -0.545161 -5.490048
v -1.456678 -0.591498 -5.459086
v -1.456678 -0.622460 -5.412749
v -1.456678 -0.633332 -5.358090
v -1.456678 -0.622460 -5.303432
v -1.456678 -0.591498 -5.257094
v -1.456678 -0.545161 -5.226132
v -1.456678 -0.490503 -5.215261
v -1.456678 -0.435844 -5.226132
v -1.456678 -0.389507 -5.257094
v -1.456679 -0.358545 -5.303432
v -1.456679 -0.347673 -5.358090
v -1.456679 -0.358545 -5.412749
v -1.456679 -0.389507 -5.459086
v -1.456679 -0.435844 -5.490048
v -1.474801 -0.510830 -5.407165
v -1.474801 -0.490503 -5.411208
v -1.474801 -0.528062 -5.395650
v -1.474801 -0.539577 -5.378417
v -1.474801 -0.543620 -5.358090
v -1.474801 -0.539577 -5.337763
v -1.474801 -0.528062 -5.320530
v -1.474801 -0.510830 -5.309016
v -1.474801 -0.490503 -5.304973
v -1.474801 -0.470175 -5.309016
v -1.474801 -0.452943 -5.320530
v -1.474801 -0.441428 -5.337763
v -1.474801 -0.437385 -5.358090
v -1.474801 -0.441428 -5.378417
v -1.474801 -0.452943 -5.395650
v -1.474801 -0.470175 -5.407165
v -1.604683 -0.490502 -6.014839
v -1.604683 -0.557697 -6.001473
v -1.604683 -0.614662 -5.963411
v -1.604683 -0.652724 -5.906446
v -1.604683 -0.666090 -5.839252
v -1.604683 -0.652724 -5.772058
v -1.604683 -0.614662 -5.715093
v -1.604683 -0.557697 -5.677030
v -1.604683 -0.490502 -5.663664
v -1.604683 -0.423308 -5.677030
v -1.604683 -0.366343 -5.715093
v -1.604683 -0.328281 -5.772058
v -1.604683 -0.314915 -5.839252
v -1.604683 -0.328281 -5.906446
v -1.604683 -0.366343 -5.963411
v -1.604683 -0.423308 -6.001473
v -1.604683 -0.490503 -5.533678
v -1.604683 -0.557697 -5.520312
v -1.604683 -0.614662 -5.482249
v -1.604683 -0.652724 -5.425284
v -1.604683 -0.666090 -5.358090
v -1.604683 -0.652724 -5.290896
v -1.604683 -0.614662 -5.233931
v -1.604683 -0.557697 -5.195868
v -1.604683 -0.490503 -5.182503
v -1.604683 -0.423308 -5.195868
v -1.604683 -0.366343 -5.233931
v -1.604683 -0.328281 -5.290896
v -1.604683 -0.314915 -5.358090
v -1.604683 -0.328281 -5.425284
v -1.604683 -0.366343 -5.482249
v -1.604683 -0.423308 -5.520312
v -1.982035 -0.490502 -5.839252
v -2.111917 -0.490502 -5.839252
v -2.121177 -0.557697 -6.001473
v -2.121177 -0.490502 -6.014839
v -2.121177 -0.614662 -5.963411
v -2.121177 -0.652724 -5.906446
v -2.121177 -0.666090 -5.839252
v -2.121177 -0.652724 -5.772058
v -2.121177 -0.614662 -5.715093
v -2.121177 -0.557697 -5.677030
v -2.121177 -0.490502 -5.663664
v -2.121177 -0.423308 -5.677030
v -2.121177 -0.366343 -5.715093
v -2.121177 -0.328281 -5.772058
v -2.121177 -0.314915 -5.839252
v -2.121177 -0.328281 -5.906446
v -2.121177 -0.366343 -5.963411
v -2.121177 -0.423308 -6.001473
v -2.117840 -0.532625 -5.940945
v -2.117840 -0.490502 -5.949324
v -2.117840 -0.568335 -5.917085
v -2.117840 -0.592196 -5.881374
v -2.117840 -0.600575 -5.839252
v -2.117840 -0.592196 -5.797129
v -2.117840 -0.568335 -5.761419
v -2.117840 -0.532625 -5.737558
v -2.117840 -0.490502 -5.729179
v -2.117840 -0.448380 -5.737558
v -2.117840 -0.412670 -5.761419
v -2.117840 -0.388809 -5.797129
v -2.117840 -0.380430 -5.839252
v -2.117840 -0.388809 -5.881374
v -2.117840 -0.412670 -5.917085
v -2.117840 -0.448380 -5.940945
v -2.130039 -0.490502 -5.982081
v -2.130039 -0.545161 -5.971209
v -2.130039 -0.591498 -5.940248
v -2.130039 -0.622460 -5.893910
v -2.130039 -0.633332 -5.839252
v -2.130039 -0.622460 -5.784593
v -2.130039 -0.591498 -5.738256
v -2.130039 -0.545161 -5.707294
v -2.130039 -0.490502 -5.696422
v -2.130039 -0.435844 -5.707294
v -2.130039 -0.389507 -5.738256
v -2.130039 -0.358545 -5.784593
v -2.130039 -0.347673 -5.839252
v -2.130039 -0.358545 -5.893910
v -2.130039 -0.389507 -5.940248
v -2.130039 -0.435844 -5.971209
v -2.111917 -0.510830 -5.888326
v -2.111917 -0.490502 -5.892369
v -2.111917 -0.528062 -5.876812
v -2.111917 -0.539577 -5.859579
v -2.111917 -0.543620 -5.839252
v -2.111917 -0.539577 -5.818924
v -2.111917 -0.528062 -5.801692
v -2.111917 -0.510830 -5.790177
v -2.111917 -0.490502 -5.786134
v -2.111917 -0.470175 -5.790177
v -2.111917 -0.452943 -5.801692
v -2.111917 -0.441428 -5.818924
v -2.111917 -0.437385 -5.839252
v -2.111917 -0.441428 -5.859579
v -2.111917 -0.452943 -5.876812
v -2.111917 -0.470175 -5.888326
v -1.982035 -0.490503 -5.358090
v -2.111917 -0.490502 -5.358090
v -2.121177 -0.557697 -5.520312
v -2.121177 -0.490502 -5.533678
v -2.121177 -0.614662 -5.482249
v -2.121177 -0.652724 -5.425284
v -2.121177 -0.666090 -5.358090
v -2.121177 -0.652724 -5.290896
v -2.121177 -0.614662 -5.233931
v -2.121177 -0.557697 -5.195868
v -2.121177 -0.490502 -5.182503
v -2.121177 -0.423308 -5.195868
v -2.121177 -0.366343 -5.233931
v -2.121177 -0.328281 -5.290896
v -2.121177 -0.314915 -5.358090
v -2.121177 -0.328281 -5.425284
v -2.121177 -0.366343 -5.482249
v -2.121177 -0.423308 -5.520312
v -2.117840 -0.532625 -5.459784
v -2.117840 -0.490502 -5.468163
v -2.117840 -0.568335 -5.435923
v -2.117840 -0.592196 -5.400213
v -2.117840 -0.600575 -5.358090
v -2.117840 -0.592196 -5.315968
v -2.117840 -0.568335 -5.280257
v -2.117840 -0.532625 -5.256397
v -2.117840 -0.490502 -5.248018
v -2.117840 -0.448380 -5.256397
v -2.117840 -0.412670 -5.280257
v -2.117840 -0.388809 -5.315968
v -2.117840 -0.380430 -5.358090
v -2.117840 -0.388809 -5.400213
v -2.117840 -0.412670 -5.435923
v -2.117840 -0.448380 -5.459784
v -2.130039 -0.490502 -5.500920
v -2.130039 -0.545161 -5.490047
v -2.130039 -0.591498 -5.459086
v -2.130039 -0.622460 -5.412749
v -2.130039 -0.633332 -5.358090
v -2.130039 -0.622460 -5.303432
v -2.130039 -0.591498 -5.257094
v -2.130039 -0.545161 -5.226132
v -2.130039 -0.490502 -5.215261
v -2.130039 -0.435844 -5.226132
v -2.130039 -0.389507 -5.257094
v -2.130039 -0.358545 -5.303432
v -2.130039 -0.347673 -5.358090
v -2.130039 -0.358545 -5.412749
v -2.130039 -0.389507 -5.459086
v -2.130039 -0.435844 -5.490047
v -2.111917 -0.510830 -5.407165
v -2.111917 -0.490502 -5.411208
v -2.111917 -0.528062 -5.395650
v -2.111917 -0.539577 -5.378417
v -2.111917 -0.543620 -5.358090
v -2.111917 -0.539577 -5.337763
v -2.111917 -0.528062 -5.320530
v -2.111917 -0.510830 -5.309016
v -2.111917 -0.490502 -5.304973
v -2.111917 -0.470175 -5.309016
v -2.111917 -0.452943 -5.320530
v -2.111917 -0.441428 -5.337763
v -2.111917 -0.437385 -5.358090
v -2.111917 -0.441428 -5.378417
v -2.111917 -0.452943 -5.395650
v -2.111917 -0.470175 -5.407165
v -1.982035 -0.490502 -6.014839
v -1.982035 -0.557697 -6.001473
v -1.982035 -0.614662 -5.963411
v -1.982035 -0.652724 -5.906446
v -1.982035 -0.666090 -5.839252
v -1.982035 -0.652724 -5.772058
v -1.982035 -0.614662 -5.715093
v -1.982035 -0.557697 -5.677030
v -1.982035 -0.490502 -5.663664
v -1.982035 -0.423308 -5.677030
v -1.982035 -0.366343 -5.715093
v -1.982035 -0.328281 -5.772058
v -1.982035 -0.314915 -5.839252
v -1.982035 -0.328281 -5.906446
v -1.982035 -0.366343 -5.963411
v -1.982035 -0.423308 -6.001473
v -1.982035 -0.490503 -5.533678
v -1.982035 -0.557697 -5.520312
v -1.982035 -0.614662 -5.482249
v -1.982035 -0.652724 -5.425284
v -1.982035 -0.666090 -5.358090
v -1.982035 -0.652724 -5.290896
v -1.982035 -0.614662 -5.233931
v -1.982035 -0.557697 -5.195868
v -1.982035 -0.490503 -5.182503
v -1.982035 -0.423308 -5.195868
v -1.982035 -0.366343 -5.233931
v -1.982035 -0.328281 -5.290896
v -1.982035 -0.314915 -5.358090
v -1.982035 -0.328281 -5.425284
v -1.982035 -0.366343 -5.482249
v -1.982035 -0.423308 -5.520312
vn -0.0000 -0.0000 -1.0000
vn -0.0000 -0.3827 -0.9239
vn -0.0000 -0.7071 -0.7071
vn -0.0000 -0.9239 -0.3827
vn -0.0000 -1.0000 -0.0000
vn -0.0000 -0.9239 0.3827
vn -0.0000 -0.7071 0.7071
vn -0.0000 -0.3827 0.9239
vn -0.0000 -0.0000 1.0000
vn -0.0000 0.3827 0.9239
vn -0.0000 0.7071 0.7071
vn -0.0000 0.9239 0.3827
vn -0.0000 1.0000 -0.0000
vn -0.0000 0.9239 -0.3827
vn -0.0000 0.7071 -0.7071
vn -0.0000 0.3827 -0.9239
vn 0.9653 -0.0000 -0.2612
vn 0.9653 -0.0999 -0.2413
vn 0.9653 -0.1847 -0.1847
vn 0.9653 -0.2413 -0.0999
vn 0.9653 -0.2612 -0.0000
vn 0.9653 -0.2413 0.0999
vn 0.9653 -0.1847 0.1847
vn 0.9653 -0.0999 0.2413
vn 0.9653 -0.0000 0.2612
vn 0.9653 0.0999 0.2413
vn 0.9653 0.1847 0.1847
vn 0.9653 0.2413 0.0999
vn 0.9653 0.2612 -0.0000
vn 0.9653 0.2413 -0.0999
vn 0.9653 0.1847 -0.1847
vn 0.9653 0.0999 -0.2413
vn 0.9984 -0.0000 0.0569
vn 0.9984 0.0218 0.0526
vn 0.9946 0.0396 0.0956
vn 0.9946 -0.0000 0.1034
vn 0.9984 0.0403 0.0403
vn 0.9946 0.0731 0.0731
vn 0.9984 0.0526 0.0218
vn 0.9946 0.0956 0.0396
vn 0.9984 0.0569 -0.0000
vn 0.9946 0.1034 -0.0000
vn 0.9984 0.0526 -0.0218
vn 0.9946 0.0956 -0.0396
vn 0.9984 0.0403 -0.0403
vn 0.9946 0.0731 -0.0731
vn 0.9984 0.0218 -0.0526
vn 0.9946 0.0396 -0.0956
vn 0.9984 -0.0000 -0.0569
vn 0.9946 -0.0000 -0.1034
vn 0.9984 -0.0218 -0.0526
vn 0.9946 -0.0396 -0.0956
vn 0.9984 -0.0403 -0.0403
vn 0.9946 -0.0731 -0.0731
vn 0.9984 -0.0526 -0.0218
vn 0.9946 -0.0956 -0.0396
vn 0.9984 -0.0569 -0.0000
vn 0.9946 -0.1034 -0.0000
vn 0.9984 -0.0526 0.0218
vn 0.9946 -0.0956 0.0396
vn 0.9984 -0.0403 0.0403
vn 0.9946 -0.0731 0.0731
vn 0.9984 -0.0218 0.0526
vn 0.9946 -0.0396 0.0956
vn 0.9371 -0.1336 0.3224
vn 0.9371 -0.0000 0.3490
vn 0.9371 -0.2468 0.2468
vn 0.9371 -0.3224 0.1336
vn 0.9371 -0.3490 -0.0000
vn 0.9371 -0.3224 -0.1336
vn 0.9371 -0.2468 -0.2468
vn 0.9371 -0.1336 -0.3224
vn 0.9371 -0.0000 -0.3490
vn 0.9371 0.1336 -0.3224
vn 0.9371 0.2468 -0.2468
vn 0.9371 0.3224 -0.1336
vn 0.9371 0.3490 -0.0000
vn 0.9371 0.3224 0.1336
vn 0.9371 0.2468 0.2468
vn 0.9371 0.1336 0.3224
vn 1.0000 -0.0000 -0.0000
vn -1.0000 -0.0000 -0.0000
vn -0.9653 -0.0000 -0.2612
vn -0.9653 -0.0999 -0.2413
vn -0.9653 -0.1847 -0.1847
vn -0.9653 -0.2413 -0.0999
vn -0.9653 -0.2612 -0.0000
vn -0.9653 -0.2413 0.0999
vn -0.9653 -0.1847 0.1847
vn -0.9653 -0.0999 0.2413
vn -0.9653 -0.0000 0.2612
vn -0.9653 0.0999 0.2413
vn -0.9653 0.1847 0.1847
vn -0.9653 0.2413 0.0999
vn -0.9653 0.2612 -0.0000
vn -0.9653 0.2413 -0.0999
vn -0.9653 0.1847 -0.1847
vn -0.9653 0.0999 -0.2413
vn -0.9984 -0.0000 0.0569
vn -0.9946 -0.0000 0.1034
vn -0.9946 0.0396 0.0956
vn -0.9984 0.0218 0.0526
vn -0.9946 0.0731 0.0731
vn -0.9984 0.0403 0.0403
vn -0.9946 0.0956 0.0396
vn -0.9984 0.0526 0.0218
vn -0.9946 0.1034 -0.0000
vn -0.9984 0.0569 -0.0000
vn -0.9946 0.0956 -0.0396
vn -0.9984 0.0526 -0.0218
vn -0.9946 0.0731 -0.0731
vn -0.9984 0.0403 -0.0403
vn -0.9946 0.0396 -0.0956
vn -0.9984 0.0218 -0.0526
vn -0.9946 -0.0000 -0.1034
vn -0.9984 -0.0000 -0.0569
vn -0.9946 -0.0396 -0.0956
vn -0.9984 -0.0218 -0.0526
vn -0.9946 -0.0731 -0.0731
vn -0.9984 -0.0403 -0.0403
vn -0.9946 -0.0956 -0.0396
vn -0.9984 -0.0526 -0.0218
vn -0.9946 -0.1034 -0.0000
vn -0.9984 -0.0569 -0.0000
vn -0.9946 -0.0956 0.0396
vn -0.9984 -0.0526 0.0218
vn -0.9946 -0.0731 0.0731
vn -0.9984 -0.0403 0.0403
vn -0.9946 -0.0396 0.0956
vn -0.9984 -0.0218 0.0526
vn -0.9371 -0.1336 0.3224
vn -0.9371 -0.0000 0.3490
vn -0.9371 -0.2468 0.2468
vn -0.9371 -0.3224 0.1336
vn -0.9371 -0.3490 -0.0000
vn -0.9371 -0.3224 -0.1336
vn -0.9371 -0.2468 -0.2468
vn -0.9371 -0.1336 -0.3224
vn -0.9371 -0.0000 -0.3490
vn -0.9371 0.1336 -0.3224
vn -0.9371 0.2468 -0.2468
vn -0.9371 0.3224 -0.1336
vn -0.9371 0.3490 -0.0000
vn -0.9371 0.3224 0.1336
vn -0.9371 0.2468 0.2468
vn -0.9371 0.1336 0.3224
vt 1.000000 0.500000
vt 1.000000 1.000000
vt 0.937500 1.000000
vt 0.937500 0.500000
vt 0.875000 1.000000
vt 0.875000 0.500000
vt 0.812500 1.000000
vt 0.812500 0.500000
vt 0.750000 1.000000
vt 0.750000 0.500000
vt 0.687500 1.000000
vt 0.687500 0.500000
vt 0.625000 1.000000
vt 0.625000 0.500000
vt 0.562500 1.000000
vt 0.562500 0.500000
vt 0.500000 1.000000
vt 0.500000 0.500000
vt 0.437500 1.000000
vt 0.437500 0.500000
vt 0.375000 1.000000
vt 0.375000 0.500000
vt 0.312500 1.000000
vt 0.312500 0.500000
vt 0.250000 1.000000
vt 0.250000 0.500000
vt 0.187500 1.000000
vt 0.187500 0.500000
vt 0.125000 1.000000
vt 0.125000 0.500000
vt 0.062500 1.000000
vt 0.062500 0.500000
vt 0.000000 1.000000
vt 0.000000 0.500000
vt 0.250000 0.445226
vt 0.324710 0.430365
vt 0.341844 0.471731
vt 0.250000 0.490000
vt 0.388045 0.388045
vt 0.419706 0.419706
vt 0.430365 0.324710
vt 0.471731 0.341844
vt 0.445226 0.250000
vt 0.490000 0.250000
vt 0.430365 0.175290
vt 0.471731 0.158156
vt 0.388045 0.111955
vt 0.419706 0.080294
vt 0.324710 0.069635
vt 0.341844 0.028269
vt 0.250000 0.054774
vt 0.250000 0.010000
vt 0.175290 0.069635
vt 0.158156 0.028269
vt 0.111955 0.111955
vt 0.080294 0.080294
vt 0.069635 0.175290
vt 0.028269 0.158156
vt 0.054774 0.250000
vt 0.010000 0.250000
vt 0.069635 0.324710
vt 0.028269 0.341844
vt 0.111955 0.388045
vt 0.080294 0.419706
vt 0.175290 0.430365
vt 0.158156 0.471731
vt 0.250000 0.322603
vt 0.277784 0.317077
vt 0.307575 0.388999
vt 0.250000 0.400451
vt 0.301338 0.301338
vt 0.356385 0.356385
vt 0.317077 0.277784
vt 0.388999 0.307575
vt 0.322603 0.250000
vt 0.400451 0.250000
vt 0.317077 0.222216
vt 0.388999 0.192425
vt 0.301338 0.198662
vt 0.356385 0.143615
vt 0.277784 0.182923
vt 0.307575 0.111001
vt 0.250000 0.177397
vt 0.250000 0.099549
vt 0.222216 0.182923
vt 0.192425 0.111001
vt 0.198662 0.198662
vt 0.143615 0.143615
vt 0.182923 0.222216
vt 0.111001 0.192425
vt 0.177397 0.250000
vt 0.099549 0.250000
vt 0.182923 0.277784
vt 0.111001 0.307575
vt 0.198662 0.301338
vt 0.143615 0.356385
vt 0.222216 0.317077
vt 0.192425 0.388999
vt 0.269601 0.297322
vt 0.286219 0.286219
vt 0.297322 0.269601
vt 0.301221 0.250000
vt 0.297322 0.230399
vt 0.286219 0.213781
vt 0.269601 0.202678
vt 0.250000 0.198779
vt 0.230399 0.202678
vt 0.213781 0.213781
vt 0.202678 0.230399
vt 0.198779 0.250000
vt 0.202678 0.269601
vt 0.213781 0.286219
vt 0.230399 0.297322
vt 0.250000 0.301221
vt 0.750000 0.400252
vt 0.750000 0.490000
vt 0.841844 0.471731
vt 0.807499 0.388815
vt 0.919706 0.419706
vt 0.856245 0.356245
vt 0.971731 0.341844
vt 0.888815 0.307499
vt 0.990000 0.250000
vt 0.900252 0.250000
vt 0.971731 0.158156
vt 0.888815 0.192501
vt 0.919706 0.080294
vt 0.856245 0.143755
vt 0.841844 0.028269
vt 0.807499 0.111185
vt 0.750000 0.010000
vt 0.750000 0.099748
vt 0.658156 0.028269
vt 0.692501 0.111185
vt 0.580294 0.080294
vt 0.643756 0.143755
vt 0.528269 0.158156
vt 0.611185 0.192501
vt 0.510000 0.250000
vt 0.599748 0.250000
vt 0.528269 0.341844
vt 0.611185 0.307499
vt 0.580294 0.419706
vt 0.643755 0.356244
vt 0.658156 0.471731
vt 0.692501 0.388815
vt 0.750000 0.409642
vt 0.811092 0.397490
vt 0.862884 0.362884
vt 0.897490 0.311092
vt 0.909642 0.250000
vt 0.897490 0.188908
vt 0.862884 0.137116
vt 0.811092 0.102510
vt 0.750000 0.090358
vt 0.688908 0.102510
vt 0.637116 0.137116
vt 0.602510 0.188908
vt 0.590358 0.250000
vt 0.602510 0.311092
vt 0.637116 0.362884
vt 0.688908 0.397490
s 1
usemtl Tire
f 319/203/67 190/204/67 189/205/68 320/206/68
f 320/206/68 189/205/68 191/207/69 321/208/69
f 321/208/69 191/207/69 192/209/70 322/210/70
f 322/210/70 192/209/70 193/211/71 323/212/71
f 323/212/71 193/211/71 194/213/72 324/214/72
f 324/214/72 194/213/72 195/215/73 325/216/73
f 325/216/73 195/215/73 196/217/74 326/218/74
f 326/218/74 196/217/74 197/219/75 327/220/75
f 327/220/75 197/219/75 198/221/76 328/222/76
f 328/222/76 198/221/76 199/223/77 329/224/77
f 329/224/77 199/223/77 200/225/78 330/226/78
f 330/226/78 200/225/78 201/227/79 331/228/79
f 331/228/79 201/227/79 202/229/80 332/230/80
f 332/230/80 202/229/80 203/231/81 333/232/81
f 333/232/81 203/231/81 204/233/82 334/234/82
f 334/234/82 204/233/82 190/235/67 319/236/67
f 221/237/83 222/238/84 189/239/84 190/240/83
f 222/238/84 223/241/85 191/242/85 189/239/84
f 223/241/85 224/243/86 192/244/86 191/242/85
f 224/243/86 225/245/87 193/246/87 192/244/86
f 225/245/87 226/247/88 194/248/88 193/246/87
f 226/247/88 227/249/89 195/250/89 194/248/88
f 227/249/89 228/251/90 196/252/90 195/250/89
f 228/251/90 229/253/91 197/254/91 196/252/90
f 229/253/91 230/255/92 198/256/92 197/254/91
f 230/255/92 231/257/93 199/258/93 198/256/92
f 231/257/93 232/259/94 200/260/94 199/258/93
f 232/259/94 233/261/95 201/262/95 200/260/94
f 233/261/95 234/263/96 202/264/96 201/262/95
f 234/263/96 235/265/97 203/266/97 202/264/96
f 235/265/97 236/267/98 204/268/98 203/266/97
f 236/267/98 221/237/83 190/240/83 204/268/98
f 220/300/131 206/272/132 221/237/132 236/267/131
f 219/298/133 220/300/131 236/267/131 235/265/133
f 218/296/134 219/298/133 235/265/133 234/263/134
f 217/294/135 218/296/134 234/263/134 233/261/135
f 216/292/136 217/294/135 233/261/135 232/259/136
f 215/290/137 216/292/136 232/259/136 231/257/137
f 214/288/138 215/290/137 231/257/137 230/255/138
f 213/286/139 214/288/138 230/255/138 229/253/139
f 212/284/140 213/286/139 229/253/139 228/251/140
f 211/282/141 212/284/140 228/251/140 227/249/141
f 210/280/142 211/282/141 227/249/141 226/247/142
f 209/278/143 210/280/142 226/247/142 225/245/143
f 208/276/144 209/278/143 225/245/143 224/243/144
f 207/274/145 208/276/144 224/243/144 223/241/145
f 205/271/146 207/274/145 223/241/145 222/238/146
f 206/272/132 205/271/146 222/238/146 221/237/132
f 335/203/67 256/204/67 255/205/68 336/206/68
f 336/206/68 255/205/68 257/207/69 337/208/69
f 337/208/69 257/207/69 258/209/70 338/210/70
f 338/210/70 258/209/70 259/211/71 339/212/71
f 339/212/71 259/211/71 260/213/72 340/214/72
f 340/214/72 260/213/72 261/215/73 341/216/73
f 341/216/73 261/215/73 262/217/74 342/218/74
f 342/218/74 262/217/74 263/219/75 343/220/75
f 343/220/75 263/219/75 264/221/76 344/222/76
f 344/222/76 264/221/76 265/223/77 345/224/77
f 345/224/77 265/223/77 266/225/78 346/226/78
f 346/226/78 266/225/78 267/227/79 347/228/79
f 347/228/79 267/227/79 268/229/80 348/230/80
f 348/230/80 268/229/80 269/231/81 349/232/81
f 349/232/81 269/231/81 270/233/82 350/234/82
f 350/234/82 270/233/82 256/235/67 335/236/67
f 287/237/83 288/238/84 255/239/84 256/240/83
f 288/238/84 289/241/85 257/242/85 255/239/84
f 289/241/85 290/243/86 258/244/86 257/242/85
f 290/243/86 291/245/87 259/246/87 258/244/86
f 291/245/87 292/247/88 260/248/88 259/246/87
f 292/247/88 293/249/89 261/250/89 260/248/88
f 293/249/89 294/251/90 262/252/90 261/250/89
f 294/251/90 295/253/91 263/254/91 262/252/90
f 295/253/91 296/255/92 264/256/92 263/254/91
f 296/255/92 297/257/93 265/258/93 264/256/92
f 297/257/93 298/259/94 266/260/94 265/258/93
f 298/259/94 299/261/95 267/262/95 266/260/94
f 299/261/95 300/263/96 268/264/96 267/262/95
f 300/263/96 301/265/97 269/266/97 268/264/96
f 301/265/97 302/267/98 270/268/98 269/266/97
f 302/267/98 287/237/83 256/240/83 270/268/98
f 286/300/131 272/272/132 287/237/132 302/267/131
f 285/298/133 286/300/131 302/267/131 301/265/133
f 284/296/134 285/298/133 301/265/133 300/263/134
f 283/294/135 284/296/134 300/263/134 299/261/135
f 282/292/136 283/294/135 299/261/135 298/259/136
f 281/290/137 282/292/136 298/259/136 297/257/137
f 280/288/138 281/290/137 297/257/137 296/255/138
f 279/286/139 280/288/138 296/255/138 295/253/139
f 278/284/140 279/286/139 295/253/139 294/251/140
f 277/282/141 278/284/140 294/251/140 293/249/141
f 276/280/142 277/282/141 293/249/141 292/247/142
f 275/278/143 276/280/142 292/247/142 291/245/143
f 274/276/144 275/278/143 291/245/143 290/243/144
f 273/274/145 274/276/144 290/243/144 289/241/145
f 271/271/146 273/274/145 289/241/145 288/238/146
f 272/272/132 271/271/146 288/238/146 287/237/132
f 187/317/148 319/318/148 320/319/148
f 187/320/148 320/319/148 321/321/148
f 187/322/148 321/321/148 322/323/148
f 187/324/148 322/323/148 323/325/148
f 187/326/148 323/325/148 324/327/148
f 187/328/148 324/327/148 325/329/148
f 187/330/148 325/329/148 326/331/148
f 187/332/148 326/331/148 327/333/148
f 187/334/148 327/333/148 328/335/148
f 187/336/148 328/335/148 329/337/148
f 187/338/148 329/337/148 330/339/148
f 187/340/148 330/339/148 331/341/148
f 187/342/148 331/341/148 332/343/148
f 187/344/148 332/343/148 333/345/148
f 187/346/148 333/345/148 334/347/148
f 187/348/148 334/347/148 319/318/148
f 253/349/148 335/318/148 336/319/148
f 253/350/148 336/319/148 337/321/148
f 253/351/148 337/321/148 338/323/148
f 253/352/148 338/323/148 339/325/148
f 253/353/148 339/325/148 340/327/148
f 253/354/148 340/327/148 341/329/148
f 253/355/148 341/329/148 342/331/148
f 253/356/148 342/331/148 343/333/148
f 253/357/148 343/333/148 344/335/148
f 253/358/148 344/335/148 345/337/148
f 253/359/148 345/337/148 346/339/148
f 253/360/148 346/339/148 347/341/148
f 253/361/148 347/341/148 348/343/148
f 253/362/148 348/343/148 349/345/148
f 253/363/148 349/345/148 350/347/148
f 253/364/148 350/347/148 335/318/148
f 483/203/67 484/206/68 353/205/68 354/204/67
f 484/206/68 485/208/69 355/207/69 353/205/68
f 485/208/69 486/210/70 356/209/70 355/207/69
f 486/210/70 487/212/71 357/211/71 356/209/70
f 487/212/71 488/214/72 358/213/72 357/211/71
f 488/214/72 489/216/73 359/215/73 358/213/72
f 489/216/73 490/218/74 360/217/74 359/215/73
f 490/218/74 491/220/75 361/219/75 360/217/74
f 491/220/75 492/222/76 362/221/76 361/219/75
f 492/222/76 493/224/77 363/223/77 362/221/76
f 493/224/77 494/226/78 364/225/78 363/223/77
f 494/226/78 495/228/79 365/227/79 364/225/78
f 495/228/79 496/230/80 366/229/80 365/227/79
f 496/230/80 497/232/81 367/231/81 366/229/80
f 497/232/81 498/234/82 368/233/82 367/231/81
f 498/234/82 483/236/67 354/235/67 368/233/82
f 385/237/149 354/240/149 353/239/150 386/238/150
f 386/238/150 353/239/150 355/242/151 387/241/151
f 387/241/151 355/242/151 356/244/152 388/243/152
f 388/243/152 356/244/152 357/246/153 389/245/153
f 389/245/153 357/246/153 358/248/154 390/247/154
f 390/247/154 358/248/154 359/250/155 391/249/155
f 391/249/155 359/250/155 360/252/156 392/251/156
f 392/251/156 360/252/156 361/254/157 393/253/157
f 393/253/157 361/254/157 362/256/158 394/255/158
f 394/255/158 362/256/158 363/258/159 395/257/159
f 395/257/159 363/258/159 364/260/160 396/259/160
f 396/259/160 364/260/160 365/262/161 397/261/161
f 397/261/161 365/262/161 366/264/162 398/263/162
f 398/263/162 366/264/162 367/266/163 399/265/163
f 399/265/163 367/266/163 368/268/164 400/267/164
f 400/267/164 368/268/164 354/240/149 385/237/149
f 384/300/197 400/267/197 385/237/198 370/272/198
f 383/298/199 399/265/199 400/267/197 384/300/197
f 382/296/200 398/263/200 399/265/199 383/298/199
f 381/294/201 397/261/201 398/263/200 382/296/200
f 380/292/202 396/259/202 397/261/201 381/294/201
f 379/290/203 395/257/203 396/259/202 380/292/202
f 378/288/204 394/255/204 395/257/203 379/290/203
f 377/286/205 393/253/205 394/255/204 378/288/204
f 376/284/206 392/251/206 393/253/205 377/286/205
f 375/282/207 391/249/207 392/251/206 376/284/206
f 374/280/208 390/247/208 391/249/207 375/282/207
f 373/278/209 389/245/209 390/247/208 374/280/208
f 372/276/210 388/243/210 389/245/209 373/278/209
f 371/274/211 387/241/211 388/243/210 372/276/210
f 369/271/212 386/238/212 387/241/211 371/274/211
f 370/272/198 385/237/198 386/238/212 369/271/212
f 499/203/67 500/206/68 419/205/68 420/204/67
f 500/206/68 501/208/69 421/207/69 419/205/68
f 501/208/69 502/210/70 422/209/70 421/207/69
f 502/210/70 503/212/71 423/211/71 422/209/70
f 503/212/71 504/214/72 424/213/72 423/211/71
f 504/214/72 505/216/73 425/215/73 424/213/72
f 505/216/73 506/218/74 426/217/74 425/215/73
f 506/218/74 507/220/75 427/219/75 426/217/74
f 507/220/75 508/222/76 428/221/76 427/219/75
f 508/222/76 509/224/77 429/223/77 428/221/76
f 509/224/77 510/226/78 430/225/78 429/223/77
f 510/226/78 511/228/79 431/227/79 430/225/78
f 511/228/79 512/230/80 432/229/80 431/227/79
f 512/230/80 513/232/81 433/231/81 432/229/80
f 513/232/81 514/234/82 434/233/82 433/231/81
f 514/234/82 499/236/67 420/235/67 434/233/82
f 451/237/149 420/240/149 419/239/150 452/238/150
f 452/238/150 419/239/150 421/242/151 453/241/151
f 453/241/151 421/242/151 422/244/152 454/243/152
f 454/243/152 422/244/152 423/246/153 455/245/153
f 455/245/153 423/246/153 424/248/154 456/247/154
f 456/247/154 424/248/154 425/250/155 457/249/155
f 457/249/155 425/250/155 426/252/156 458/251/156
f 458/251/156 426/252/156 427/254/157 459/253/157
f 459/253/157 427/254/157 428/256/158 460/255/158
f 460/255/158 428/256/158 429/258/159 461/257/159
f 461/257/159 429/258/159 430/260/160 462/259/160
f 462/259/160 430/260/160 431/262/161 463/261/161
f 463/261/161 431/262/161 432/264/162 464/263/162
f 464/263/162 432/264/162 433/266/163 465/265/163
f 465/265/163 433/266/163 434/268/164 466/267/164
f 466/267/164 434/268/164 420/240/149 451/237/149
f 450/300/197 466/267/197 451/237/198 436/272/198
f 449/298/199 465/265/199 466/267/197 450/300/197
f 448/296/200 464/263/200 465/265/199 449/298/199
f 447/294/201 463/261/201 464/263/200 448/296/200
f 446/292/202 462/259/202 463/261/201 447/294/201
f 445/290/203 461/257/203 462/259/202 446/292/202
f 444/288/204 460/255/204 461/257/203 445/290/203
f 443/286/205 459/253/205 460/255/204 444/288/204
f 442/284/206 458/251/206 459/253/205 443/286/205
f 441/282/207 457/249/207 458/251/206 442/284/206
f 440/280/208 456/247/208 457/249/207 441/282/207
f 439/278/209 455/245/209 456/247/208 440/280/208
f 438/276/210 454/243/210 455/245/209 439/278/209
f 437/274/211 453/241/211 454/243/210 438/276/210
f 435/271/212 452/238/212 453/241/211 437/274/211
f 436/272/198 451/237/198 452/238/212 435/271/212
f 351/317/147 484/319/147 483/318/147
f 351/320/147 485/321/147 484/319/147
f 351/322/147 486/323/147 485/321/147
f 351/324/147 487/325/147 486/323/147
f 351/326/147 488/327/147 487/325/147
f 351/328/147 489/329/147 488/327/147
f 351/330/147 490/331/147 489/329/147
f 351/332/147 491/333/147 490/331/147
f 351/334/147 492/335/147 491/333/147
f 351/336/147 493/337/147 492/335/147
f 351/338/147 494/339/147 493/337/147
f 351/340/147 495/341/147 494/339/147
f 351/342/147 496/343/147 495/341/147
f 351/344/147 497/345/147 496/343/147
f 351/346/147 498/347/147 497/345/147
f 351/348/147 483/318/147 498/347/147
f 417/349/147 500/319/147 499/318/147
f 417/350/147 501/321/147 500/319/147
f 417/351/147 502/323/147 501/321/147
f 417/352/147 503/325/147 502/323/147
f 417/353/147 504/327/147 503/325/147
f 417/354/147 505/329/147 504/327/147
f 417/355/147 506/331/147 505/329/147
f 417/356/147 507/333/147 506/331/147
f 417/357/147 508/335/147 507/333/147
f 417/358/147 509/337/147 508/335/147
f 417/359/147 510/339/147 509/337/147
f 417/360/147 511/341/147 510/339/147
f 417/361/147 512/343/147 511/341/147
f 417/362/147 513/345/147 512/343/147
f 417/363/147 514/347/147 513/345/147
f 417/364/147 499/318/147 514/347/147
usemtl Secondary
f 238/269/99 237/270/100 205/271/101 206/272/102
f 237/270/100 239/273/103 207/274/104 205/271/101
f 239/273/103 240/275/105 208/276/106 207/274/104
f 240/275/105 241/277/107 209/278/108 208/276/106
f 241/277/107 242/279/109 210/280/110 209/278/108
f 242/279/109 243/281/111 211/282/112 210/280/110
f 243/281/111 244/283/113 212/284/114 211/282/112
f 244/283/113 245/285/115 213/286/116 212/284/114
f 245/285/115 246/287/117 214/288/118 213/286/116
f 246/287/117 247/289/119 215/290/120 214/288/118
f 247/289/119 248/291/121 216/292/122 215/290/120
f 248/291/121 249/293/123 217/294/124 216/292/122
f 249/293/123 250/295/125 218/296/126 217/294/124
f 250/295/125 251/297/127 219/298/128 218/296/126
f 251/297/127 252/299/129 220/300/130 219/298/128
f 252/299/129 238/269/99 206/272/102 220/300/130
f 188/301/147 237/270/100 238/269/99
f 188/302/147 239/273/103 237/270/100
f 188/303/147 240/275/105 239/273/103
f 188/304/147 241/277/107 240/275/105
f 188/305/147 242/279/109 241/277/107
f 188/306/147 243/281/111 242/279/109
f 188/307/147 244/283/113 243/281/111
f 188/308/147 245/285/115 244/283/113
f 188/309/147 246/287/117 245/285/115
f 188/310/147 247/289/119 246/287/117
f 188/311/147 248/291/121 247/289/119
f 188/312/147 249/293/123 248/291/121
f 188/313/147 250/295/125 249/293/123
f 188/314/147 251/297/127 250/295/125
f 188/315/147 252/299/129 251/297/127
f 188/316/147 238/269/99 252/299/129
f 304/269/99 303/270/100 271/271/101 272/272/102
f 303/270/100 305/273/103 273/274/104 271/271/101
f 305/273/103 306/275/105 274/276/106 273/274/104
f 306/275/105 307/277/107 275/278/108 274/276/106
f 307/277/107 308/279/109 276/280/110 275/278/108
f 308/279/109 309/281/111 277/282/112 276/280/110
f 309/281/111 310/283/113 278/284/114 277/282/112
f 310/283/113 311/285/115 279/286/116 278/284/114
f 311/285/115 312/287/117 280/288/118 279/286/116
f 312/287/117 313/289/119 281/290/120 280/288/118
f 313/289/119 314/291/121 282/292/122 281/290/120
f 314/291/121 315/293/123 283/294/124 282/292/122
f 315/293/123 316/295/125 284/296/126 283/294/124
f 316/295/125 317/297/127 285/298/128 284/296/126
f 317/297/127 318/299/129 286/300/130 285/298/128
f 318/299/129 304/269/99 272/272/102 286/300/130
f 254/301/147 303/270/100 304/269/99
f 254/302/147 305/273/103 303/270/100
f 254/303/147 306/275/105 305/273/103
f 254/304/147 307/277/107 306/275/105
f 254/305/147 308/279/109 307/277/107
f 254/306/147 309/281/111 308/279/109
f 254/307/147 310/283/113 309/281/111
f 254/308/147 311/285/115 310/283/113
f 254/309/147 312/287/117 311/285/115
f 254/310/147 313/289/119 312/287/117
f 254/311/147 314/291/121 313/289/119
f 254/312/147 315/293/123 314/291/121
f 254/313/147 316/295/125 315/293/123
f 254/314/147 317/297/127 316/295/125
f 254/315/147 318/299/129 317/297/127
f 254/316/147 304/269/99 318/299/129
f 402/269/165 370/272/166 369/271/167 401/270/168
f 401/270/168 369/271/167 371/274/169 403/273/170
f 403/273/170 371/274/169 372/276/171 404/275/172
f 404/275/172 372/276/171 373/278/173 405/277/174
f 405/277/174 373/278/173 374/280/175 406/279/176
f 406/279/176 374/280/175 375/282/177 407/281/178
f 407/281/178 375/282/177 376/284/179 408/283/180
f 408/283/180 376/284/179 377/286/181 409/285/182
f 409/285/182 377/286/181 378/288/183 410/287/184
f 410/287/184 378/288/183 379/290/185 411/289/186
f 411/289/186 379/290/185 380/292/187 412/291/188
f 412/291/188 380/292/187 381/294/189 413/293/190
f 413/293/190 381/294/189 382/296/191 414/295/192
f 414/295/192 382/296/191 383/298/193 415/297/194
f 415/297/194 383/298/193 384/300/195 416/299/196
f 416/299/196 384/300/195 370/272/166 402/269/165
f 352/301/148 402/269/165 401/270/168
f 352/302/148 401/270/168 403/273/170
f 352/303/148 403/273/170 404/275/172
f 352/304/148 404/275/172 405/277/174
f 352/305/148 405/277/174 406/279/176
f 352/306/148 406/279/176 407/281/178
f 352/307/148 407/281/178 408/283/180
f 352/308/148 408/283/180 409/285/182
f 352/309/148 409/285/182 410/287/184
f 352/310/148 410/287/184 411/289/186
f 352/311/148 411/289/186 412/291/188
f 352/312/148 412/291/188 413/293/190
f 352/313/148 413/293/190 414/295/192
f 352/314/148 414/295/192 415/297/194
f 352/315/148 415/297/194 416/299/196
f 352/316/148 416/299/196 402/269/165
f 468/269/165 436/272/166 435/271/167 467/270/168
f 467/270/168 435/271/167 437/274/169 469/273/170
f 469/273/170 437/274/169 438/276/171 470/275/172
f 470/275/172 438/276/171 439/278/173 471/277/174
f 471/277/174 439/278/173 440/280/175 472/279/176
f 472/279/176 440/280/175 441/282/177 473/281/178
f 473/281/178 441/282/177 442/284/179 474/283/180
f 474/283/180 442/284/179 443/286/181 475/285/182
f 475/285/182 443/286/181 444/288/183 476/287/184
f 476/287/184 444/288/183 445/290/185 477/289/186
f 477/289/186 445/290/185 446/292/187 478/291/188
f 478/291/188 446/292/187 447/294/189 479/293/190
f 479/293/190 447/294/189 448/296/191 480/295/192
f 480/295/192 448/296/191 449/298/193 481/297/194
f 481/297/194 449/298/193 450/300/195 482/299/196
f 482/299/196 450/300/195 436/272/166 468/269/165
f 418/301/148 468/269/165 467/270/168
f 418/302/148 467/270/168 469/273/170
f 418/303/148 469/273/170 470/275/172
f 418/304/148 470/275/172 471/277/174
f 418/305/148 471/277/174 472/279/176
f 418/306/148 472/279/176 473/281/178
f 418/307/148 473/281/178 474/283/180
f 418/308/148 474/283/180 475/285/182
f 418/309/148 475/285/182 476/287/184
f 418/310/148 476/287/184 477/289/186
f 418/311/148 477/289/186 478/291/188
f 418/312/148 478/291/188 479/293/190
f 418/313/148 479/293/190 480/295/192
f 418/314/148 480/295/192 481/297/194
f 418/315/148 481/297/194 482/299/196
f 418/316/148 482/299/196 468/269/165
